<mxfile host="app.diagrams.net" modified="2023-08-22T02:52:40.133Z" agent="Mozilla/5.0 (Macintosh; Intel Mac OS X 10_15_7) AppleWebKit/537.36 (KHTML, like Gecko) Chrome/115.0.0.0 Safari/537.36" etag="224gpz7pxqrVawHbLrqA" version="21.6.8" type="github">
  <diagram name="Page-1" id="DKLm8I0CWL10gOJah8kx">
    <mxGraphModel dx="2083" dy="687" grid="1" gridSize="10" guides="1" tooltips="1" connect="1" arrows="1" fold="1" page="1" pageScale="1" pageWidth="850" pageHeight="1100" math="0" shadow="0">
      <root>
        <mxCell id="0" />
        <mxCell id="1" parent="0" />
        <mxCell id="eN5fv8qmjUggmNhshSSZ-1" value="containerd" style="rounded=0;whiteSpace=wrap;html=1;fillColor=#dae8fc;strokeColor=#6c8ebf;shadow=0;sketch=1;curveFitting=1;jiggle=2;" parent="1" vertex="1">
          <mxGeometry x="740" y="260" width="100" height="50" as="geometry" />
        </mxCell>
        <mxCell id="eN5fv8qmjUggmNhshSSZ-5" value="runwasi" style="rounded=0;whiteSpace=wrap;html=1;fillColor=#d5e8d4;strokeColor=#82b366;shadow=0;sketch=1;curveFitting=1;jiggle=2;" parent="1" vertex="1">
          <mxGeometry x="660" y="325" width="90" height="40" as="geometry" />
        </mxCell>
        <mxCell id="YCXhCaxtDNognnf4IBF1-29" style="rounded=0;orthogonalLoop=1;jettySize=auto;html=1;endArrow=none;endFill=0;" edge="1" parent="1" source="eN5fv8qmjUggmNhshSSZ-8">
          <mxGeometry relative="1" as="geometry">
            <mxPoint x="-95" y="440" as="targetPoint" />
          </mxGeometry>
        </mxCell>
        <mxCell id="eN5fv8qmjUggmNhshSSZ-8" value="" style="rounded=0;whiteSpace=wrap;html=1;shadow=0;sketch=1;curveFitting=1;jiggle=2;fillColor=#f5f5f5;fontColor=#333333;strokeColor=#666666;" parent="1" vertex="1">
          <mxGeometry x="-150" y="330" width="110" height="70" as="geometry" />
        </mxCell>
        <mxCell id="eN5fv8qmjUggmNhshSSZ-6" value="" style="shape=image;verticalLabelPosition=bottom;labelBackgroundColor=default;verticalAlign=top;aspect=fixed;imageAspect=0;image=data:image/svg+xml,PHN2ZyB4bWxucz0iaHR0cDovL3d3dy53My5vcmcvMjAwMC9zdmciIHZpZXdCb3g9IjAgMCAyNTYgMjU1Ljk5Njk5NDAxODU1NDciIHdpZHRoPSIyNTAwIiBwcmVzZXJ2ZUFzcGVjdFJhdGlvPSJ4TWlkWU1pZCIgaGVpZ2h0PSIyNDk5Ljk5OTk0MTU4Njc2MzMiPjxwYXRoIGZpbGw9IiM2NTRmZjAiIGQ9Ik0xNTcuMjkgMEgyNTZ2MjU1Ljk5N0gwVjBoOTguNzFjLS4wMi40NTgtLjA2OC45MTEtLjA2OCAxLjM3NSAwIDE2LjIxNSAxMy4xNDQgMjkuMzYgMjkuMzU4IDI5LjM2czI5LjM2LTEzLjE0NSAyOS4zNi0yOS4zNmMwLS40NjQtLjA0Ny0uOTE3LS4wNy0xLjM3NXptNTguMzI3IDIyOC42aDE3LjU5OGwtMjYuNjU3LTkwLjYzMmgtMjYuNzUzTDE1Ny44NTMgMjI4LjZoMTcuMDU4bDQuNDQ0LTIwLjE4aDMwLjQ4NXptLTkzLjQgMGgxNi44NDJsMjEuNjA5LTkwLjYzMkgxNDQuMDRsLTEzLjIzNiA2Mi40NTNoLS4yMTZsLTEyLjU3LTYyLjQ1M2gtMTUuODcxbC0xMy45ODQgNjEuNjloLS4yMTdsLTExLjYwNC02MS42OUg1OS4zOUw3OC45MiAyMjguNmgxNy4xNjZsMTMuNDQ3LTYxLjY5aC4yMTZ6bTY3Ljc4NC02OC4yOTFoNy4xM2w4LjUwMiAzMy4yNThoLTIzLjAzeiIvPjwvc3ZnPg==;" parent="1" vertex="1">
          <mxGeometry x="-120" y="440" width="50" height="50" as="geometry" />
        </mxCell>
        <mxCell id="eN5fv8qmjUggmNhshSSZ-9" value="wasmedge" style="text;html=1;strokeColor=none;fillColor=none;align=center;verticalAlign=middle;whiteSpace=wrap;rounded=0;fontSize=14;" parent="1" vertex="1">
          <mxGeometry x="-125" y="330" width="60" height="30" as="geometry" />
        </mxCell>
        <mxCell id="eN5fv8qmjUggmNhshSSZ-14" value="" style="rounded=0;whiteSpace=wrap;html=1;shadow=0;sketch=1;curveFitting=1;jiggle=2;fillColor=#f5f5f5;fontColor=#333333;strokeColor=#666666;" parent="1" vertex="1">
          <mxGeometry x="-10" y="330" width="110" height="70" as="geometry" />
        </mxCell>
        <mxCell id="eN5fv8qmjUggmNhshSSZ-16" value="wasmtime" style="text;html=1;strokeColor=none;fillColor=none;align=center;verticalAlign=middle;whiteSpace=wrap;rounded=0;fontSize=14;" parent="1" vertex="1">
          <mxGeometry x="15" y="330" width="60" height="30" as="geometry" />
        </mxCell>
        <mxCell id="eN5fv8qmjUggmNhshSSZ-17" value="containerd-shim-runc-v2" style="rounded=0;whiteSpace=wrap;html=1;fillColor=#d5e8d4;strokeColor=#82b366;shadow=0;sketch=1;curveFitting=1;jiggle=2;" parent="1" vertex="1">
          <mxGeometry x="885" y="120" width="140" height="40" as="geometry" />
        </mxCell>
        <mxCell id="eN5fv8qmjUggmNhshSSZ-18" value="crun" style="rounded=0;whiteSpace=wrap;html=1;fillColor=#d5e8d4;strokeColor=#82b366;shadow=0;sketch=1;curveFitting=1;jiggle=2;" parent="1" vertex="1">
          <mxGeometry x="840" y="200" width="90" height="40" as="geometry" />
        </mxCell>
        <mxCell id="eN5fv8qmjUggmNhshSSZ-27" value="" style="rounded=0;whiteSpace=wrap;html=1;shadow=0;sketch=1;curveFitting=1;jiggle=2;fillColor=#f5f5f5;fontColor=#333333;strokeColor=#666666;" parent="1" vertex="1">
          <mxGeometry x="700" y="410" width="110" height="70" as="geometry" />
        </mxCell>
        <mxCell id="eN5fv8qmjUggmNhshSSZ-28" value="" style="shape=image;verticalLabelPosition=bottom;labelBackgroundColor=default;verticalAlign=top;aspect=fixed;imageAspect=0;image=data:image/svg+xml,PHN2ZyB4bWxucz0iaHR0cDovL3d3dy53My5vcmcvMjAwMC9zdmciIHZpZXdCb3g9IjAgMCAyNTYgMjU1Ljk5Njk5NDAxODU1NDciIHdpZHRoPSIyNTAwIiBwcmVzZXJ2ZUFzcGVjdFJhdGlvPSJ4TWlkWU1pZCIgaGVpZ2h0PSIyNDk5Ljk5OTk0MTU4Njc2MzMiPjxwYXRoIGZpbGw9IiM2NTRmZjAiIGQ9Ik0xNTcuMjkgMEgyNTZ2MjU1Ljk5N0gwVjBoOTguNzFjLS4wMi40NTgtLjA2OC45MTEtLjA2OCAxLjM3NSAwIDE2LjIxNSAxMy4xNDQgMjkuMzYgMjkuMzU4IDI5LjM2czI5LjM2LTEzLjE0NSAyOS4zNi0yOS4zNmMwLS40NjQtLjA0Ny0uOTE3LS4wNy0xLjM3NXptNTguMzI3IDIyOC42aDE3LjU5OGwtMjYuNjU3LTkwLjYzMmgtMjYuNzUzTDE1Ny44NTMgMjI4LjZoMTcuMDU4bDQuNDQ0LTIwLjE4aDMwLjQ4NXptLTkzLjQgMGgxNi44NDJsMjEuNjA5LTkwLjYzMkgxNDQuMDRsLTEzLjIzNiA2Mi40NTNoLS4yMTZsLTEyLjU3LTYyLjQ1M2gtMTUuODcxbC0xMy45ODQgNjEuNjloLS4yMTdsLTExLjYwNC02MS42OUg1OS4zOUw3OC45MiAyMjguNmgxNy4xNjZsMTMuNDQ3LTYxLjY5aC4yMTZ6bTY3Ljc4NC02OC4yOTFoNy4xM2w4LjUwMiAzMy4yNThoLTIzLjAzeiIvPjwvc3ZnPg==;" parent="1" vertex="1">
          <mxGeometry x="740" y="440" width="30" height="30" as="geometry" />
        </mxCell>
        <mxCell id="eN5fv8qmjUggmNhshSSZ-29" value="wasmedge" style="text;html=1;strokeColor=none;fillColor=none;align=center;verticalAlign=middle;whiteSpace=wrap;rounded=0;fontSize=14;" parent="1" vertex="1">
          <mxGeometry x="725" y="410" width="60" height="30" as="geometry" />
        </mxCell>
        <mxCell id="eN5fv8qmjUggmNhshSSZ-30" value="" style="rounded=0;whiteSpace=wrap;html=1;shadow=0;sketch=1;curveFitting=1;jiggle=2;fillColor=#f5f5f5;fontColor=#333333;strokeColor=#666666;" parent="1" vertex="1">
          <mxGeometry x="840" y="410" width="110" height="70" as="geometry" />
        </mxCell>
        <mxCell id="eN5fv8qmjUggmNhshSSZ-31" value="" style="shape=image;verticalLabelPosition=bottom;labelBackgroundColor=default;verticalAlign=top;aspect=fixed;imageAspect=0;image=data:image/svg+xml,PHN2ZyB4bWxucz0iaHR0cDovL3d3dy53My5vcmcvMjAwMC9zdmciIHZpZXdCb3g9IjAgMCAyNTYgMjU1Ljk5Njk5NDAxODU1NDciIHdpZHRoPSIyNTAwIiBwcmVzZXJ2ZUFzcGVjdFJhdGlvPSJ4TWlkWU1pZCIgaGVpZ2h0PSIyNDk5Ljk5OTk0MTU4Njc2MzMiPjxwYXRoIGZpbGw9IiM2NTRmZjAiIGQ9Ik0xNTcuMjkgMEgyNTZ2MjU1Ljk5N0gwVjBoOTguNzFjLS4wMi40NTgtLjA2OC45MTEtLjA2OCAxLjM3NSAwIDE2LjIxNSAxMy4xNDQgMjkuMzYgMjkuMzU4IDI5LjM2czI5LjM2LTEzLjE0NSAyOS4zNi0yOS4zNmMwLS40NjQtLjA0Ny0uOTE3LS4wNy0xLjM3NXptNTguMzI3IDIyOC42aDE3LjU5OGwtMjYuNjU3LTkwLjYzMmgtMjYuNzUzTDE1Ny44NTMgMjI4LjZoMTcuMDU4bDQuNDQ0LTIwLjE4aDMwLjQ4NXptLTkzLjQgMGgxNi44NDJsMjEuNjA5LTkwLjYzMkgxNDQuMDRsLTEzLjIzNiA2Mi40NTNoLS4yMTZsLTEyLjU3LTYyLjQ1M2gtMTUuODcxbC0xMy45ODQgNjEuNjloLS4yMTdsLTExLjYwNC02MS42OUg1OS4zOUw3OC45MiAyMjguNmgxNy4xNjZsMTMuNDQ3LTYxLjY5aC4yMTZ6bTY3Ljc4NC02OC4yOTFoNy4xM2w4LjUwMiAzMy4yNThoLTIzLjAzeiIvPjwvc3ZnPg==;" parent="1" vertex="1">
          <mxGeometry x="880" y="440" width="30" height="30" as="geometry" />
        </mxCell>
        <mxCell id="eN5fv8qmjUggmNhshSSZ-32" value="wasmtime" style="text;html=1;strokeColor=none;fillColor=none;align=center;verticalAlign=middle;whiteSpace=wrap;rounded=0;fontSize=14;" parent="1" vertex="1">
          <mxGeometry x="865" y="410" width="60" height="30" as="geometry" />
        </mxCell>
        <mxCell id="eN5fv8qmjUggmNhshSSZ-33" value="youki" style="rounded=0;whiteSpace=wrap;html=1;fillColor=#d5e8d4;strokeColor=#82b366;shadow=0;sketch=1;curveFitting=1;jiggle=2;" parent="1" vertex="1">
          <mxGeometry x="980" y="200" width="90" height="40" as="geometry" />
        </mxCell>
        <mxCell id="YCXhCaxtDNognnf4IBF1-2" value="" style="shape=image;verticalLabelPosition=bottom;labelBackgroundColor=default;verticalAlign=top;aspect=fixed;imageAspect=0;image=https://wasmedge.org/img/wasmedge-horizontal-white.svg;" vertex="1" parent="1">
          <mxGeometry x="386.59000000000003" y="640" width="306.82" height="90" as="geometry" />
        </mxCell>
        <mxCell id="YCXhCaxtDNognnf4IBF1-3" value="" style="shape=image;verticalLabelPosition=bottom;labelBackgroundColor=default;verticalAlign=top;aspect=fixed;imageAspect=0;image=data:image/png,iVBORw0KGgoAAAANSUhEUgAAAKgAAACmCAYAAABOQcTEAAAAAXNSR0IArs4c6QAAAHhlWElmTU0AKgAAAAgABAEaAAUAAAABAAAAPgEbAAUAAAABAAAARgEoAAMAAAABAAIAAIdpAAQAAAABAAAATgAAAAAAAACQAAAAAQAAAJAAAAABAAOgAQADAAAAAQABAACgAgAEAAAAAQAAAKigAwAEAAAAAQAAAKYAAAAAHDEbFgAAAAlwSFlzAAAWJQAAFiUBSVIk8AAAERVJREFUeAHtXT3LLUkRftcV8YqIoPgTXAMzM0MjBUVBA0MTNzQxETEwEIxMDDfSzEBBUFgjQ/0DIqz4Cxb8QMQr7rr6Pvfus7fOc6p7umdq5nTPqYb39kx/VFc99XTVzJw55770zS//7X8PWR6+/YMPP7zy6fdXkXj69Omz/idPnlTHtXb2ynv1K39vFX2ace87jSUnN+SNP7x9cgt985KgPi7Dtf4pCTqcTw5V6Nc/+/eh6+VibQhkBH0Xp9FTaEbQNkKfetSoJIVeo+q2NyEyghqER03z9xo94ZokqCHoqJHqV3d8fZwENQTF4WhR9J7JCX8kQYGCKYiio5ACeoyii4Ho0MMkqAM3SDHCTcm9kxOuSYI6BEXTj773z0LPMc23Xv8YK5dXSYJWMMJn37eIpCDnLdatQHGzriToAvRHk+Xo9RbMv3l3ErTBBSDN3teDiJhJzmtn1N8vux5/ty0g6Ftvvfzwha/FQwbZe2+AWR33Ur4P2u+6z381hqiv//zth9/84r/9CtzRjCToBmeDqCg9UfXPf3zn4fVHUqLOsoxAEnQZo+YRX/r6B92x/Cw978xdeKqN8RdU1eXO3ZnXkfH+zbv4eExTYiACSdBAMFNUPAJJ0HhMU2IgAknQQDBTVDwCSdB4TFNiIAJJ0EAwU1Q8AknQeExTYiACSdBAMFNUPAJJ0HhMU2IgAknQQDBTVDwCSdB4TFNiIAJJ0EAwrSj8lOPSzzna8XnsI5Avi/i4rGoFIb/4+EaTR8x8KXkVpA/5ut063C5m1Yh5MfDxJImqiNTPM4LW8VnsxTugpfdAvckY+8nHSIvvH2VZRiCvQZcxKo4okRMvJuOvFC0RcfGT41mWEcgUv4xRccRrv/zoRR9Iid928t6c98hcIvCF0Ds/yRS/kgCa1kHKWtoGGfHVDxs5keqz1BHIFF/Hp9ir5Gr5VTyQ2EZXpHrvjr+46B12JEFXOt0SS4lXE6lEVqLX5t5jXxI0wOv81maLKBtBMT4JWkctCVrHx+210dMdkI1hCCRBV0C5JQoquXui7wpVp5+SBF3pQiVpq5hM6a1IPR+XBO3Dyx2NqKiPndyBj406Do+fspQRSIKWsan26N249yDeCgCJ7TNQ9CU5LUL+cT4p9nFZbEWKB8FsRLTHJB+IibRu+yicY3ie9TUCSdBrTJpbQDCQz974kIisS8KSnCVkLtszxV/i0X225teX18zpVuwkE5KgAY5ENGyNiCDn2icAAapOJyIJGuCynrv4fMzUB3gStA+vq9G41tS786tBpqF3vJl6l4dJ0JVu52OjpZshiNeUjrl4l7Rl7kr1TjPt5c986jvfP401BxlCcn78E5f7G0T86Y//9fCXN9+5uLP/7qv/eKYZ5tnC8/y406JyeXyJ2GVfnjkIIOp5kc/eKHnXmbyJ0rk4x/jay86OGnfTdBkC7sbsfkMZNZVgkNT62Agk9f57RcjOlO/7JCOoj8tFK0jpERMpfU3kwxxPJtdgtL1Q4k5PkqALjscdOq8V7VCb0m176zFJSFJyHs4z5RON/O+4XyAhR0y7Sk5GTRJMpnWdQkam/DpkGUEdfLz0i2Fbo6az1LOmTPklZB4ekqAGG0TL0m8rgUT6PNNM3XzIiJwp/xLKvIt/Fw8Qw7veZErfk5x0SaZ8IvGizgj6iIVHTEC0V0p/Ab9/lCn/BS53TVCkdO9zdETL0k/YvIBu36NM+c/xvdsUz5SuNDsypevaep4p/w5vkmo3QrdK6UpMPb/nlH9XKb70+GiElK6k1PN7Tfl3k+JxramPcEACOH7vR0hKtrXn95jyT09Q3gih1gJiMjJp38jnJb1LGWJkW5Z0O/X7oHDYN771oQfvvU28o4n3NvcofL8TmwIbgOeRa1Gmbjyc47P83//2P5HL3UzWKX9hGU4qfSIEwswYNWsMGe05bk3X3r7TRVCQEw7zoibedv/dSSKLdTSjpRdNMY7R1s6Z5fj6wmwWzR09S9dgZ4yaaj6zgt4I4nzm1/cOTfF7pd6a3Fnu0JVwW86jUz7xhU4apbExEKH3elfhEILSQDXOc0JvtCtFzRmebXr2R7WVcOnFt0R21ZOfwGn71vPdCQpSwsie0gpiCbzW+T06LY1lakU6ReFmZGRBlNkz0nj6lUjaQqaeoMK1W+RybGu9K0FL5LROg0PpTKt0zdia3KNf8iiRwNqix0dvoDUbuTQHfuFNFzel2hd5WbUrQT0jS8p7jvbGeuMAUI3QCmDEeUmPHtlHErWkr6eDN9YbB1u9sZG+2I2gnuL4/k2t6BxraC3llMCrrbW2rxS9KQ86oyDKaLrnmKUaMvbIBIov9bA4o03/Bz0vUHAu6zVzOLdWH0bQVhJp1MU8FICrZS9H6jo8r5ETetauMWsbjPK9uhU3b26pTTHmOA/r1vUVGyU91+itdyOo3VE9yqqhJYNagSvN720v6bVGjxJBSjqtWaMki+2laMp+1ktZj+NQq109c60ce3zIg3peVNuFS8cg81JpSTlLMnr6S+RcqwfmQSY+jmUhRt5NI7MHiBpVKIuyo+RGyzmEoFFK90TiqDUhxxIJ5xF6QMYbj0T1CsmLmoVEIrHYvqVmZNbIR5ktwYJjUWOTWZ1t39rjQ163483CWiUxD2AxymyR0zsXgCvo+j989MpcGs8NoGQkSZfm9/aX7FG7l+RG+FnX2I2gdvf1GFpyAmSg7+gf2dLoCdJY2xTQyHNGOCuzhI8d03oMTBE98VcqPb6zY6Mw2o2gGu1agW0ZZ4naMr4E/lI7AFfQNaotydjar+tttRf2gJDY6KXUbnXWDWr77LHqpf63Y3uOX1zk9MxqGAtgrdI8VsCtqNpOtuN4TJmoIbcmm3NKNRzHFMXakhPzSqmwJDOqHdHI6oLjngjFuSAbj1t1w3jiW5qDfvqCY7b4gjJQ70ZQCIeSVnEeY3cRYAK2RE4aTBmQbwva8cdxrO0Y75jzvL5R2oAXcYJOwKrlCQLmtJASvsDmK/kAGGHTQg+La0m+HbMVw92eg1KxtQTQqGEd0irTzqE+rFtlcDz0gbxblJKuIIJHhhJxrO4MECAmjnUNxd/OrR1H47T7G/W8FrERoGYg+gA63hL/7Oc+8N7Qjz3+HjzfHLc7WaPLexMeD+wc267OsH2lY/72fKl/z3bYCJ21AFNEtr8+frfKfr/qh6995OobBZwLAsEWYsx5kGV9BKxr2FKerSHzJ4+yI8uuKZ6KcpcDTAsC+1kDPO5otNldTADRxkK5qFtJVxpnZVE+dbVrsu/oGp/KQHfF8BkuCykf+oNs+CvZohvA4oHUTyxKdteyVWlOS/vuKV6VgKEAGX8AjMUDD2PtdVELCAQa8i3ZsY5HTjiCzqAuo9eKC/QF8XgJYjFWDDzbFBcPE8rEfGCLAtkoJdI/69z4zyER1OoIY9YahAv+0qcvXKNENgBM8tqxpfEcM2JNMtrNS/tgzxaMYa8NHLR/q0zK6a13ew7aq4g3XkGBE/C3pujzPC9KrJF7qzkkqV0fG3ANPrpxIXuUMjRBARLTyBbAPGLPGDkVAxBJ7WD61bGlcyWnyivNO6p9eIIqEBoJtd871zmjOcHTubVNbVHCtcrhOC+9s+8W9fAEjUzzBFidyvZZa7Wnh6Q6dqT0Dn8MT1AoGZHmIQdlNAc81+o2/yo5lei30epy1SkIeqny9fuZ2q/na24cVMbI51FpOUpOJFZTEHSPNB8J4qyyNIKOmF2mICgIEJnmZyVUpN5KzhHTO+ydhqDqHL0z1357biPDGdO9YrEmVa+ZYzHe63gagm5J8wq+Ro+9wL2VXLshSzooBi1zSrL2bJ+GoAAh0/w1FfRDiBaiKTlHTe+wdiqCqns0tWk/z+EA6wQ4SJ3EsbPV9vN46L5mE2uGGQmDqQi6Jc0r6GcgqZJT8VGbea6bsyXqcu7R9VQEBThrIgTmaRRF26wkRVrHl970hq8FGyWnzSzAZLSy7tWggaxAml96BY/qwhl4mcI6Fg7ju6MYN3I0IblY0y7UsG2N7iOnd9h1+AvLWHRrQWqzJGt5kdmuqfNtH47XOFplRJ9be1W2lx10DM/tb2ahLeL3kyh7j3rKCIpU9sojSdcWEBpRyItEkFkjw9o195rXsznV3tHTOzCb7hoUSmuEa72bx1wWOAfRYwYnUWdbU3/Fwo5ZOh49vUP/KSMoFIdjGOlQ42+Ns+BoOIov+rKmbKw1QoFt0BN/a+yEDRpB18o5Eo9pCappvudmSQGGo2Zwlurdc67knCVzTJni4ZizE6qHfGvGzpDeYde0BIXylqRM82jPco2ARlCL3fXocVqmJqg+mF5zszSOK/bTRMk5S3oHIlMTdJYosB/11kmeJb1PT1AYYEmaad4nrEZQi5k/Y5zWqSMoYMw0XyeTknOm9A7LpifoXtEA0VidW6dCfO8eOsyU3oHotM9BLR1AUjgThWl+C3Ehg6+ygaQ9HydavbYcY127QdZGPisD+mzBZYs9a+dOH0FheHSaJznXghoxzxILx9yAPbKtDMxbS/KeNaPHnoKgkVHBI2ek/FYHKpkiHqHNlt6B1SkICkMsiZjm0d5TvEiF9H6LAoKqTRoRl/TS8Vbe0txR+k9D0K1pHs5UhypJjnaa2gT9WlO9Z8vR+kesdxqCbokOJXJqmo0AvEcGbFIdvEuQFpkzpnfYdRqCwhhL0tY0Pyo5YQ+KF8VbSKoR1GLzXPIc/56KoJoSl24sQGJ1JAihUevWrlS7PL2tjp5Ntn+m41MRtDdKaCTyUuoIzvT0Aglbr0dnTe/A/lQEhUGWpLU0r+TE3FvdsWPtpeKl+lKG0AhqMVlaZ7T+0xFU06HnRC/6jExOkkZt81K9knO0yxXa0lqfjqBL0QIO9Jy4NK8V0D3HQUclnLfZ9tThaNmnIygAtGSzab5ETnX60U7oWW8p1Xubr0f+aGNPSVBNhUjzZyAnyaOXI0z1ZyMn7D0lQW0EhZF0II5ZEIlmipzUm7WSFOTkV6Y55gz1lD99o8CDgPZmCOe1AgKrg2vjR+3zsoLqajcrHjfNtimnJiiJuUTImtO0j+d7PTuMlouN2Wv/TNljWoK2RA+SLWsfAWQRG2H9UbdtnfIaFBFDbwgIIwAfHXTqekRdwwMfVvRG3yN0tmvUL9bsyIGO7fUm1fLS1j1HWS86eniApN5Y4nrreroU74G8BLBGCkQVzFlToiPO1jtvzLc6tdimeCzhtwanqDnTRVBN7YicSykdz0Xt74lah/YCubTW0fL0B2lbNp7igYzU+ivVvfZtHT/lNSiN9tI6+2wNUimxtpDUyr7lsdoAPFqK4gE5KqtFzhFjpiLoFhD106WtqfUI5yytoTb0PMKaBY+pCLrFIRpBl5w/Y/8WG3vIfSQ2UxF0C4hbou+RDtmyVo+Nutm3rLvn3KkIqhHCe9xUAmsWh5T099p1w57RxqkICidZkiJitEYN7+7fc/pMbRYL6A0bW/DAGMVDZY2Cw3QEVeBaoqg6o/VuV9ca8VyJ1YKHjhkZj+ke1IMk+qAZbd4jJ0QKOEOjyuj/eRXs6Sn6LBRzS3gAOy0j4zElQUE4D2gAz4iipKRTPMexb9YaGUKzBG2ZHY8pCQrwaySlc7Q+IzlpY42kHKP1yB9xUtdpCUoDWhyDKIIH04wmnHu2unXTzoTH9AQlyUBU+5gFzprJEbQjoma6Zw2Z3JyzbdTTEDTCsSljPASmf8w0HqSpUSQCSdBINFNWOAJJ0HBIU2AkAknQSDRTVjgCSdBwSFNgJAJJ0Eg0U1Y4AknQcEhTYCQCSdBINFNWOAJJ0HBIU2AkAknQSDRTVjgCSdBwSFNgJAL/B6Zfvtm2/VbDAAAAAElFTkSuQmCC;" vertex="1" parent="1">
          <mxGeometry x="-115.24" y="355" width="40.48" height="40" as="geometry" />
        </mxCell>
        <mxCell id="YCXhCaxtDNognnf4IBF1-4" value="" style="shape=image;verticalLabelPosition=bottom;labelBackgroundColor=default;verticalAlign=top;aspect=fixed;imageAspect=0;image=https://bytecodealliance.org/images/bytecode-alliance-logo.svg;" vertex="1" parent="1">
          <mxGeometry x="-154.76" y="650" width="300" height="52" as="geometry" />
        </mxCell>
        <mxCell id="YCXhCaxtDNognnf4IBF1-7" value="" style="shape=image;verticalLabelPosition=bottom;labelBackgroundColor=default;verticalAlign=top;aspect=fixed;imageAspect=0;image=data:image/png,iVBORw0KGgoAAAANSUhEUgAAANIAAAB0CAYAAADw3GyxAAAAAXNSR0IArs4c6QAAAHhlWElmTU0AKgAAAAgABAEaAAUAAAABAAAAPgEbAAUAAAABAAAARgEoAAMAAAABAAIAAIdpAAQAAAABAAAATgAAAAAAAACQAAAAAQAAAJAAAAABAAOgAQADAAAAAQABAACgAgAEAAAAAQAAANKgAwAEAAAAAQAAAHQAAAAAuZwmBQAAAAlwSFlzAAAWJQAAFiUBSVIk8AAAOrNJREFUeAHtnXu0rVdZ3uc+95NzkpMbEBJCCISLYAwgSMJNsbWilWJrtYPqGPVS0eGlFXB0DPyjY9TWDrReUIu12oKto1oVB4oVB0WtCkgIARJuweSE3Ankfju35Jyz+/6e533n96119mXts/fJScj61lpzvvN9n+d55zfXN+fce6291l5YjKMtcxw4cECRnTt3LoNYm3uj9ch+9dVXt0suuWRtHVkGvdH9e6zrzcdvmQthDe66/jatgTOHzkdgPgLLjMB8Ii0zMHP3fATWMgLzibSW0Zpj5yOwzAjMJ9IyAzN3z0dgLSMwn0hrGa05dj4Cy4zAfCItMzBz93wE1jIC84m0ltGaY+cjsMwIbKn3OpaJyz0LZiX+dGyuNz0ia2vPx29t4zWNPhHjt2U6yVraN117UPAb9x5qN+492BY3LbTFhabH0azdTn/sfxWf8BeWeCguRg2/LSxk7fbARW9R+fYfOKXtuO6elXW7/mT/Wvidp/SHuHL1/ma+6M/Qh/G5pL/jJ3XrPDq3n+dyen4WFuIcGRGGQrUM2iN/YHq8/BM4hnGER28UP3B6a6c8dEvmAZf4eJ9+wOGlPa2T+GPyHot/yabTQri1H95yAcETenyi3d6ua/e02xYeaPe2g21L29Se2na3Zy6e0Z7bzmrntz0bnn/heP6y4cZr9rd3vu1mXciaMHnhM5Gm23VBTvuXa0/gmUh5cVbtSTZcuNaZzuuL/GhN7OrfSK8mK/Ui/niSx77SnejP9Pl1TvRnqp/FL110julP9at0Uw+sL9yq6wJm0kxe0AsLR3VRTPqNa5pk4FMH7gQ/dSMeI8B1HkZyEyd82NP9mfRX/1Kn8vWJN523tR/d+az2ozueTcZlj9o5ZvnLmiPRx/cfubb9vyNfaB87eqt6vJTwee3U9ootz2iv2fTM9vxNT14KsiZf/WXDmnek3/qZm9sNn9/vlTlWLQ2hn/nW/9pI7Yj4Hn6ZUTP8YU/xBKD70zieCO5cCYhETcWTTSU9hYgZggydIw6448KqbnVs6ml3Mzx1dCUcyw8x6yFOmlF/iGUf5CeuPgtIdpGL79p5+riN+OjTf86Em85I520dmPQb2cLQMA4rbIdB2o+3O0UMv/NES+NKzgFvHYOMk77Ujask0lH/jIPZdTgv2nGvfr/jwHWK/+iO50S9vuO2xQfa7x3+VPvjI9esKnRbe7D9/uFPt6s23d6+a/PF7Zs2X7QqZxZArImzHz/93Z9vN8VuxGhwbS9E4UdoZNsB2jhcYYOr9jQPvx9TuCQQNkCG7EBajxbaVWeesZ7k6YNAVSSHZkQKI1sN3OP+FCbRU3qlBmqgp6UqCu56WBe3fC7cDwB2j8YsiYHTDQguIbFLr3AEDFC+Qkq7/CjlgaFG6YPhQaWAwkUnIHY4dANimCo/v0ZVYIwTNyi/dnBv++r7/jQ7cXwVk+hdhz8+0yQaZ7j26F3t1w5f3t47w+Qb85azZ55If/3uO7Wi5IKlhcsraaw1uTh1o7dFMS9XJIWSoIqedTxa0eCuKo1jes/6FrE8up2603pCSi8I1Ui+VaxQZZcOPfngjvj2mVl6g45V6FqNz6Dn9Pj1ECiLkqu682W4A5jZ7JrRxls3dVQ+ubPfKWq2RHp+0y2ccaOj5J5UKtlqO5vTcC7O1aVw6D4ExOhNjDgCx+37HvqI22ss4bK7fODI3jUyDb9n8UD7ncNXtyviR8H1HjNNpL95913tg394txYXLVSsRH21sp1LUfSHgCutlNmuFUkhyOFXxRlYTHVfzSRDARZMVqqlVi6UDEhdmjbJkXnwdZ0C2Fdqg45zISJfwrs8hhpVBSqxyZAAPmUArtyOuk9wHJYx0hvcaRGrOJQC0Dts9RJ7EkdSuZTdJPVAfqw8AtRx2HIDKr7MQV/4AQe3xGRKjHgKKBytjsPAacyVR+6O3env7FtD+f4j17U/OvK5NTCOhd6++KB2pfsW/cLZsYjZPDNNpA/+wZ2xeGiJ0erjFZUFJdYEPSIZYWGMS2D3FY61aIJHPztv0JPLopTG9Iq1CGy45VPpXHi4OyCf5WEAzkKA5IfTeiKZKxg5wsc9auvYpiE0BWy18dlvuhDmg5ZGYmWLKr/Eu44o0iyO4/jhmzfYg+YYlynFkWL1UV2BnUf2xXoqK0HIGaeUJM6Hx8NYXCVWuBqPcX8KZ0U4YenBj3nXto8dvis7NFv1V0dumA24CuqDR27UCxSrwFYMrzqRPvKe+3JZYnUZmbJZZYaVpq+ILDhalVxp5UmcQyMe3Uts4XqeNOAESKULr2QKE4Hf67C541JOsMZQW0YeWo5FWRg8KQcp7hHhLlsuo2mXgD1Swys/Lbi0Coiph3XLPcb0cyl+4kWsDBDxR6VDfbNm4QqgfIUEl0SdT+cHWmKOCzOFU0qLBat0Eq9gdoUoecInHQubkTj5gQvnFiEYsx5XHb29XbkBP5JVvo8fva3M46pXnUhSZSnRwwtPb2Kw3lFxZLtWJ2qFVA84VqFjeeYrBj45gzgJ6mBNQ8NHt8uVfLheGQMnPdfulcGUpWaPNVXCT6L6Y3D6Eq1KKFOkZw17A5DQlFKf1DdgyS8MecrtcQKDhgOUMhMncJB160F70RS1xBNn/9DnwgUadZWyOz+zZB+MAcsByFW2Iqd9UkqOIB2HEUfEfLPEWnakvYt3t0fiJfuNOj519Evrklp1It32+fjZMVcOFgwtKmrjVkurj3qR7b6wgOMmnmtwy/PAJD45XZxU4qq0rjz0yf1Q5bBp0sq8E3rOI2j60cgUqRrVuP/gdCLJxTaEUjE8ghCIw4oQdVcQ36AjkPwi0kystVROxhODZgSSJlXb1S+HrSdRazk/klh5YEdDnu6XI/3Gqd+whC++cRazbzg/Y7Mr0iqcFJUrcwf04/G70qzHbUcfmBU6E45X/74Yj+M9Vn0f6ZZrYiLFdNMaEoXekdBKwoLi1Yv3cziGFZS2wOKxKMGfv49U41D11LhFU2PFVc0RjXqPyO8P5fodg6kRfhy/j6Qz1PXDlcGx2K54ZPbfkR5oh0zbwJI3dY/3WHVHOv+rdmgF8tLk1YNnkedaq5pWp0ifbQdo43CF7VUq3dkGoiui11O4FCBsoAzZgZRLVAmhjc9+61qvMNTyOygx+aJdGABDv8wnqHOFjm0HJQ0VqhRJLbwlRDD7pSqK0pOUC+uIY1mfT+rIjzZcQWH56HrhSb4UsglHx4jY8xMgLEjpd6L62SFTOHLp1v0ppf5gD4Exzn5yhiUNY1+69WxSzXRsb5tnwq0FtB7NVSeS5qiWybC448jaO1CskunrRm8LarxIbk/wONOORwvxuKtK45jRyJU5/bR0VEdo6mE9RaOoOoOmZCm4SQlEI/PAHfGVT7kyT/CkrbpsOFbNoHTlQZcHuatQ7TzlNh9MBKVluMzEg8Vbt8Kl21QnEU4Kksv8pltYuPIDinvmoRryOptykFnBaoGDyH0IiNGbGHEEzjfB20s2n2X/DOVTF06dATU75CkLu9vOtnV2whRy1Yl02T+Ov2rMlYMFJkyvIllrLamFh6BArsTLdq1IQiROFR2yqGqtUNKWsmPCUFRTalrv5JOVpMrnRL2v6UYUlRJSs9SoHQMTR/RLvoRnt6WpPhtC6TxCW8X0QQ+r9HyOcESVf6w3uIsftcBkShNDebPOPoxxgKG5R2LKli8KSYjuvsjT/SImHw208PlRO4nUFURoEld69juHk0KIQ7kqt12zls/ZNPvuNYvmRQtntVMXts8CXRKz6kTyohLrRq0yrDSsJL22Dc4YjMhlQPd1jkLWA6IjsXA6TjIU4QOUYFf4wFYqELRdQ7Bpn3BREO2FAMmHy80kc4VNn/SwrStc6lnGuCjzBhksGSFxNxnf8HC4C4Mq3eInXhjBwZRs2YPmGJcpnbvyK4f7howO5XAfnb8nWLI/5OjnkHrIc4hZcVrqbGkbEGxhBx3zXrpl9h3peQtPahdvOsc6G1C+ePO561JZdSI9LX5HetU/fVKuRFn1hYnVZFhphhUr+qSVy5VWnsRp8ZKdPLqf2MKxatllA054VLoIrkD2Ki8ISOWXSQ4he22ZxBktLcPtlwyJ4NLgLlsu4RUTxgVMgL6pYa7IjsnsWu4XPidw7XOQZyI3+RJhEx15osh+uq/lNcDdTx84dQJK5rdoyjvuSPF7S5zqr7ypR47qjEz8olPgIWwfOHHlxOfWj8Qfr750y+y7zJ6FHe2Vmy6Q9nqLZ286q71809PXJbPqREL91d95drvg+fElkSww0WaR8UOtWnTsLBDExLvO1VP8pXgWZqUTXhUF2OmDNW3wd7tcRQturfDuQ+gIQ2GwLSvYM8oFP4nqVtLsS7Qq82EmRCL2hiehKaU+cV5JNSsx5OGg0lioEa0M2J8AYjrQilsPdrd8mSmcxiHexwVol5cAzXQ6rdvmKFQ6I1ySVPXnkNaS/U7FiGWP2o/seK6l11B+w+YL1z2ZdsSnlV6/+fnt3IX4vNQ6jpkmEvpf/x3sSrq71mLDapMrDSCtPgVSCIrxnQxsmgcoDlYnYtxVpeHoqGQVi1ge3S4XtR7WkzuKqjMotnypZrtU0cg8cHkQUp2ObONUzOGRjVcEkN30OSZHxAFDnoR6LNQg7gClzMQJrPylNwqE6X6Xjxon/qHPtPVIg+aAU8MeBxQb2IgZDkimk4Y9BOwvHC1sEAvtXbsvc3uN5TnxgsM/2/I16/pc0Xduubi9bvPz1pj5WPjME+mC55/Svv6fnJ2rXq5UXgK7rxssOPnQ2hOFVkXVcB3Mxapj4ffVrHPATh+1jtkvbczUrdylJwXpgRGwDDfdu16mU3q93yO+fRLqem65XxnxuSDWHTa1G3Cu1ZURpsaEmMdJBg3Q4tRpypHenrkEEkwzMxVbIupDCShZEjpaxEo7ldfZTA+786t/yTVLMDE6DqPFj3JnxiS6NOrZfzcScVR8Tfye9L1bXtxesum8kXd187R4YeFfBI/PJG3EsbB//36f1RrUPvQn97cP/ul9M39CdvLTrTHY9YnQmMZLfZK0f1I1VqziVu1YvD0Zi1rHHaMXsYgf84lU+YgNutZZ+ROyk7lH/e99iP7EuShn941wFYt+TvZ76vyTCybY3nlU+wrkTVk9eCNWNov6DJ+Q1XOL3jQ/dSLfxnxCtvSz/9HH+sTtdL/fGB85/6H4pOpGHbfHB/bet3Bd+7O2tz3UHl5R9pJ2Tnvt4rPaa9qFK+JmCV577bXtOc95TvyAeBzHK1+3p53/3O3tpmsP6cK4Kb6v4Yb43oZhBeVKiEH0vdfjT7TqKeSKEZRWp4QOwx60fOd+TZ+QlZ75LJWVRytiTCA5UpcrVfEojYukQEb9ws9JekVNfK76S35CFrhOCp1gV3/qXIiH2/kIpoNauSNGPzkCmJlVKw6zy5at3kGYwNVp1sWMXo1piSgTfvKJgHjqSJ42wTiyP3DNMBayIFGEKZwsdIJD8Gs37VHffmjrBSBiB4m3VTbweGp8hPwHFl/cXtUuaFe1L7XPL9zVvhiT6862Py7yhfb0+J6GZ7TT2/MXn9xe2s6Nb3DYtoHZGbJ+9R+ru5bPzB/LPtaz0XpkqM/MH5ttec8nv3ywfeKOmPgB+W+fvT93yLg0jtnZ4jKOi+CYHSku9PK5Brd47A54jF5cXlxs5e/a6EV+Jnbu0kwgz6f4LoXAcWHKJz89z4s9ccZP+4sD3zrgaqLITj3bXPPkTZ2cUIV7+bbT2qXbTm2XUW899gtENvr5fazrMap1/R3XjoTA4/l40VN2NB4c//LiPe03YzL918/FhJo+Ka3g4dSOFFUC+qrOFY4vLrjiUg92WsweJkM0NZFSyDut+daJOJSU1Q4gHs54dL/lpBkRYuqBIMalW7KeOAOOeSJ86CEPKO59AslOJ/Zl209rb951niYQ8Plx7Ag8ISfS9DD84Av26AL/jWse0AXV4zFRdKFxwWFEoTkRNjWH51LgRm38vhhznY8YYSaOYFFM6EBWwHrwOfTqngw1o2CHGWPIW5nw2y4cYONTHK74xaGWI/xom+BeYy9qAr1l99p+kbfoE6uMHyTmByPwxufvab/yMn5cibWa60sPbLddVzuC+IFRiEM7450uhLT0E7S0EpO6iFRs0BGl+yfiyuEEzoc9aGaH1Bdrj/TBJV/nE1Qd2RfHrIXOm3ed2+aTqAZp5Xo+kUbj86KztrYXn7nNu4uXbu8KLM65m3jzkEOrexXAWe99q5VfItVQLT5aqQe/dgJZAKQULYGrtpb0R7IGlx5i5qOlu6r0KVZ+ZRUdnB5RWH+hvTx+nJtPIg/PLOV8Ik2N0q+yK2mXiUCu4H1lB8sOUo5sp0dBrer449BOYkI6RJe/7wjKJdHkdGjyJYSY49lEdjicdaJfBJGVdIGp5XAfSiDdikWc5rvPXPtfGpTcE7GeT6QlnvXffFV+A2es4Fq3WcTzwcrtnYJl3H6Wc+8wxjuSOBFAGCwEunrgSxESlEktWyVCfnR/GoEyLfNO4RCRy2oiOT9+rDywwSbhJ3c/tSLzesYRmL/YsNJAaUcKQLwyoDVfNas8azbu8GPGL+Va+eNi9OLuS1Q4THi8EOC7sbh5xYEj9biOrTP4M3OEgkw8RUCUZmGIjnGZUv2TP8SLAxY9ZcJPP0RIm/b8mHkE5hNpiaF6ydn5uZRcqbnevQtRQ4jLMi9CzwXWci7AYZXnwoTjC9QcrlrxUxdv8XURww+MuMnX5BBJaGXwq3P0Ig/0hC9HKsTEkF9l+BJHLhjZOwlZyzo/uXt9HymoXjyR6vmPdss825pMWqnjAuSeD9nlgBt+ClXZHGyseAwOmdqpahdQbMCQh4Oqdr4hefkTAFAH+eNmUjkFVr+lhts4mmhnqo6TMXgHnbm16gjMd6Rlhkhrc1/Bh53Eu1NccrkdsFlofR+1keQi7Wt+xAg/Ht5Hevn23XR/fqxxBOYTaZkB+9idw7cn+W//vOKPF/0lf0ditY/ZZVyUnkHRJuAJ5l0i7JyNfecJrGLMTo5o+EdG1/pdLEUsa8HCoK7M6GBnvu7H250RDJwy1e4UsQ8fetC55+WaRmD+o91yw8UVxo7ERc0d266o5VC7CmIAfRPFXAADEUlrpZ7DiYENQErGKW7SoC89yxpsHrmVwE4BRMXPIW0wmEKnn5gAUS20v314Ppk8MLOX84m0xFhdeVd+Z5pWai/r2inAqkkRj2x7/XeDnSAjAcECK2Q39fuJtB3uAZqJFbM30HDA/uKlrnJm5uIQStqoR+lEbvCqf5KXeonO6zWMwHwiLTFYfSJp1a4VfLSga5nXEp4bwLAjsKI74lVfS70lJKA4unpEcsBTenLJndY4nnAnQSccymnNdFTY0k4ywpGSnuSBHQ15wvjFh26vyLyecQTmE2lqoP77dfvbr19zv72s2qzwWtmxvTHY5xUdHwCv8Pjsl1fB5FvEuPALD1cPMG5Yp9z2V77MVFDnSr71Skc9kgiy7lFq0ZI59BNH4dD58MMPtJ9/aH1fKk9fn0jHfCJNPdvv3Lu/FnXtFPqdhdW6Vu3Ryq0VPQtVWtOHlV5c1v0CYurBDpC4UQygOabITryI0VdYaKApKv1X35KroJzGCJdI5TSx5y+oIFJXDnalj8x/V2J0ZjrmE2k0TO+M3WjiYKWOm+5e0G2XA3D4a82vplzdaz6xlIrV32JJHQJYSaYSLmpvFw7Yj49AHe6nuCVAKDBK1cHj89GZWSBxFi3/YvuF+a5UA7xqPZ9IMUQfj0/L/vBf39HeNT2RcgVnkffDhncKLeG5UXg3wCNcDjvru7cFlQpqzU9BKkPCUMPV4C7+KJ45vB2Rl2RStV06drs/+OQfcJM7knWIgpNklB955MH2tC9f0X5x3/zHPIZzpWPhqquumljbVgJ/Jcb+5M4d7b337PSXsMQVtPyXq8RKXR8Rj+WHt4CO+XKV8E98mUvq8b7S0XiPZswvnHWsVx8zB8fuwHtCfl8obd4Dko+pE3a0OwZ/taHz0XKqsb9z8A8fPZdW4sZ5NfcS988f2ty++6Hj/25sMn4lH4/6dzZcf8Ohtm17/C0bF1mNbNlV41/SDueUf+/117dnXfQsKUkv4hwTdvrwf+LLh9on7zioifDxO/3lLZ4QM1zooVPf0fCY/M6GPlE4+9HE4sRzQkz6B5z8gdLErAmbE9Mx62G/adf5gVyMj57X9zZotNvDh/y2wXaeX/qSh4c/2qPngZAncKGqNg/ooYdLb/KLSrpeUUb1kppBePGmp7SN/g4I0j5q39mwN35c+rP336OV+trrD+SFGMOs1TtOu1b3ONnxiuwVO3zys6KP43FZpH9x4ZR29FO3Gxe+fqFP4CNPjw06LVZ+P23+vcBljA7guPMLBiYFONvU0cLBkq26mKUDKUL8gpJ813Dth8ZOVXzXxCKQbhraFeS0FmGwyLqwo2eunHZL1jtXOvDobhHphKkjJxBNnbFwYff+OOXb990ciMX2y/ErZTwzpkbbf0wb9cF4kCQnos6BiZy6HdcxSJgz/EEuvUjf4SEuX3Y6nxWPUWGlSb+KH3ae1wvbk9ol8Z3hPxTfI7TRxwn9E6F3/Mqt7bq9w+RZiEmjMYiR5TT7E4ThUfag0DTQFy9nrXZx6ud4hpWQ9QpDLe0opBNtLmAkNBkEQNQ+K7iN3qDjPOJCLp0QtU648EVAeUZUn9/QL+e2ntKP9ESmDT9r2+VUKAoyjTHkrREY+41THvBiWcP84uhsRaSnwgXAvcbIfKZGLthxCDPg6uLPUMcJrcLaAw5n5A49LPnVFPiYtrASrzOp80s+WtJJ/kSbmPNdvXBn+1S7o/32gc+27996Sfv+LS8SbyOKEzKRrr92f3vH22/R7wS64OJcOB39zVqcEyt1tX2OtACMcDS5SLjzBGqljacYaPipxnroOCai4jg6LqxjdwBfMqCMQ9u61S/8zBphVBOXV3q9P+HiXKUjcuLCJ36dC02wqgnKcK3cwAd/Zg7FYBCnthm4svsZTOAyrPESn/HoTosoE356oBh+LlRrK5LdoePyR8wMY4EKov7V+aQOJyt/1ImjD8IrbzjrSH08xBnnOm9BEq/LAUzxJSYCRXbGbfg8L+N88N/58CcF/f6tGzOZYo/Y+OO/vP3W6Ll7r2siCr1KlCdkG1/mTiwOrXrghLVhmEszWIkE0ADVSuk6/cBTz6YYOaLySMqWY8Unt4Phd0dUy4yYc0/qmYIv/SFQeuokBXc9AhOGOFVkbY6g5ideRDS5gcWvTiqR9aqD8hsgVyGVs/yZHywuiUk9mjQmcfJYTDFhUk9c8d0nnZvoFA5IGbP8YRKrcVAILD5icWgskp8OxRUz4Bj+Snpo65Hn9q7Dn2z/6uH3SXq9xYZPpF//xVs009WxWBy03qiOlUGN8MkY2qOAY+CT02MTZ8p6mGLh73a5kg+3dj/gCvdChnylZs8oEfwkqj8A4mFfolXJI2JC0s5WQlNKfVLfQCXfdTQTK2ZvRCtt+4unNGqopz2Y/qSNe+e+Izd41S+46kT5ITutQkSrPxEolEFJLQVwuqdA9xcuFdUHK+EpK6Mk9CNiOkZtYeBLQ+ncv2yDV3+7GI58yADR2ieP3N4+eXT9fxK1oRPpA39yd7v+2gMx691JZn+tRFUT0UpDZIQTCbweXjjgdFBizZHakEYW2MqbtJGepFQAch73RS08RCcP+NyQ1sPGeKXEX3qYwqWKFeHorqD1cFhXSS0uVvGtpVJYCSuTm+Jl38Ljm0nWoXSaoKYxwmmchQTnvqAiW35sNansQacwcOyVyw37Kl/VwMRMuls4wcct/HoYJdvSGVAj8QAxVcBFwe3KZw+a8Att23QQQ/snNmBX2uCJFP+VWqtGdF51rhisEnqUe2h7lciVZxpHEB9jEfVQ4UMj3AqpVI5yCg5XD+jmKC7uoOeIsSia65wT/K5HYliqKLu+8+AhplIN2SN+6QKsGED5pTj4J+LCGEAPnCJ5NOSQEoWanU/+5FSeUBJIVMWsZSIhGJKSnYL2j/QEgi85a/S84uOzkFECpk7mUScSlzomRYODfBJxf6o97p/76wyVX62ubXSPRRN7vbvShk6kWhG8RAwzniWmVgctEtnW6sCK0R9TOK0aWjsSxGhy4Et9WhLKWgkEwaGY5LFNrSAt+6yWOnAKYr5SJZ+YlKb0pK2I80iihNxQMvHhjvjWc2/6udAFgauWiDPYpFs+ul544OjAdtM9Cqdi5e9e4SyGL27KO+CQi1an0+KGQzcFQRUuvKIPgTEO22Bwbg3xHlVMQka7AwjXATfbypTtylrnIUYVxc+2q4X2W4c/UarHVW/YRPrz9+ZuxJrUl4haOajtV0irCqtL9rnj8SVOFQXB6QO1wd/t1FWIcLTREzKKqm2plSrGVJlO82lwd2W7HHRLMpkjGr65vzoXYd0uU30a9StFBSIPB5X5MmjgTn8a8tjbM5eA3dnvFDVbIn1cEqdQxnumMEoOn2wFJ85y5K/+QeQuFhlkj/l29l4b2bUVDV1E5CzHMe0aI2VKfDHMN7WXFUyHm2J3yPEYG/jyd8zt8WxnqrNCROWXH4nrLj9dB64TwYi74uM6HHB1ZG3OsGpJBxygEVa4KKjx10ug1gtHYl1N6lVsov8A4yGdEK1+KU8ElGfUBZ/f0C/ovKytfFEIn3pqKJD+wHLUatv7E2cJrHKFFXaNwNifLy+TB7xKFLPdORo1EempcOJY0y+DmyNuJe66mVt6kne+xJHbqa19st9Hoi/qU5TuW45ntK46+iWfwHGWGziRYnWp1UNXWQyy770ev+/DU6DvLOCMOk9Q+RXnCeLOEwMmakHDr3jkIZXyJkQjhJ8BCXDHhTV/H4kxiBHx4OiqYvhrnJ5I7yNxzXCVaChU2mI4jufYsB/tnvncU7yCctHz7GRNha2fhXtoaKvTI45/ri06hFw9JFqniM9ilqcEqlYY5ve8GROqFzKkmmqdLxkL2ie9QKlG3oYUslCliKKwu56SiON+eSwSVyKlk8lpDmMRre53P1JOeYiVZuGC4Lsq1OIA1/2y0l/yjjtS/N5SDugIy5t66lqlUJqIik7hgBiY5ZcMOClJ1ufrtsMDn7ZFS8/taf50G44ZY746gcOxwLxo8/q+y29DJ5K3i1rxop9lqo7Zn5PeO9fQHgXCNMkVdpJCbjhYSQZ/t8tVtOCiJzc+BHohQ00QtOwZspBbkQjQDR6A7KPhdnp6MyPGmaBYmT5H58SXouaPZD1OhMOp5EL2fohglnK5f5UdXlKdRI7hfDI//C4Pt/w4iw8ImzgHmMGWmU0qn59RS/e7wNYRJ1WTRRKE/HBroi2FiJOr8xOvmOjwi4wjHyOnw4vthfG/aNdzbNhEohPsSrnkuE9aDWLWawFwTUArD6tBLRUyAOFLfHI6KLHmBKZWE2UkKALyNuUa9BwGY6z74GapEZk46Au3pImDrxwBxiSh+p3t0oFLLO8C4yu+uIKAwXAll+y0xvkSI2lpiYVlidKxW77KR0cKV/0FBkgpIirbTuDplyPsoT8DHxAaYFCHgw9N147IBUQ4SmHgJCzZald8aCQeMKYK58DWI4Wsg3x4DTSCZraFyXblRfJ4j42dSM/ZmatGdKdWh1o1VJc7V5JaIRILRytM+OVi5cDH2eHoFT6w4ZZPZbRx2Cl4FIOeOYqLC6fgjomfuik8ye96zoOC8qSeVMDgVyytqKpv7k9gpGVgxWDJP+ZnTidShjJBp508OsNDfGw3uz5ayak8BlvHMewiwscrqZHfGMewEyD15MArnexP4ayIs3QGjn0RUzj74WbHK2aAclR69QfNUT+kxxlkX9Qn4r3t3N8X/+F8PceGTqRvet3Z7VnsSsz6XA20AkRRq4Pc2XYMbD2mcATA6gxdygyPvIShSihrbDkVUKww1Ip1QDajXRg8Q7+wI8I9amOEwKF2FcQcSRytEhqI0Kw14oshgbDEQSn5iRcxvLopaAxZibl/AsulaDbh6JA2Tijdq7YhUlcMzcLBRaHotMSWRlgKKkPi7BNGnmQkzn4LVj/wWadHo00fIOWxRFuYCEs64oMeVPOlUEXpZZvq+7aubxLRuw2dSAh+07edFVM8jHxQaUFwYTerQViqMp6BXCkiGhBWlgEEsI5ac9wWDjN1reW2VinF0MNXhQw3o6RVZTqlJ18E3R/z7TPfWDOtUDYcqw56IOwf90vekqs6cVFB8AMzm12TeDTq5jGQU2D3O0XNTv/Qz3KnupoGRTnRH6Xq+ZwldNSpasEJh+5DQP3rTYw4Aueb4JkLjw/rVMv4BBXAuQgpHKU0K0zbdi+n2t8bf/293t0I7S31qcGeaAljFkzRzj1/ob3mm/e0v/hAfKUVK0QEeIlalupwhJ/zYXHQeWHEnQdmr8OAqyNrc4ZVSzrgAI2wwkVReu6D++IEY9lJvUHHfnGzX7aHfvX+VP8sm+c39Ivw/H0kPUv5RIXN80MrX5Lvu8tUO6+Sjqet4S6+n/3Q8ZOQo55tXyHSiHAhqC+JD/q94ZGvagceib8PXcfB/NjA95GGnnzjN5/WePzF/72/feDPH9A5cDrz95E0FFpUazw0alrSw4pnV4t5XhA0uCi46eIgHjfuXAj1nlBhCIxx/S2jMORnte5Oi6BDHvrzRHof6T+1b4yJlP9QjnNf57Fl5854gWCZo3ailTDLUOX+ttfvbFu2bdWu8r74uDnPvp44VhKMePgJJMATa3/fAXj6CQWUS2E4RjsFzuDpYlNNW67gZh5BzEfPitRloef89CdovV+ypUfhGEbvV/hoZw+A6LCOVMVTUfxRv3p/OH90AmMrWjSiVSutRwEMiJSVQX7wNDhSIXDyqwwfeQnLj20dnKamDhiOKVz1B7R1zKv+iAKt+t2F6Ufcer9hD/2pftR5Trd9PhImRRx5NeT5TOOXa1+y8BRxf23nt0plowrmxwnZkcYdfO23xO9McXzLa8/Sl0/sjS8/4csxfAElMsY1n9IJf8eM4jw3OYx6Fvdevze+/OQiCUmD5yiOskvXPMe63bFhxJN86NDDyk//PnYXX5Cy0D52z8F2xT3hRzPF+qrOBYMvuJVHuEzTvX3WBRxKCh37lxaZI2W1I4XtxKHc/TKzIBmZIi6IcXhfuT3eJA/nK6J+5XYvmMgNx2K7Xl8ecxHSeQR/dNRFObgcF76T7Fvbl5/0Z3GQ5gRGx8P15Sfb8stPMp+rSexAW1r3xZvP6V9+MmA3zjrhE2m6qxdduL0d7w43rUX7yN1H2sXn7VgqtGbfgQN+cnbu3N76f+1rp0nninsOtXdc/0C7/N6HtfLXJPdcYrV1uqpRYhWWYsQIj39H0twKp3QgAYij+LbLqVAUvkgGTK3yZILrrK/asbP9nyedV6QV692PxO8K2zbmfyIdOOzfNXZuXf6nnBU7MxWs3112btkYvSn5DW1u+Kt2G9q7x5DY1525vf2Plz6p/dgzT/WOkr9XeHOJ/UDtqrU5GMdU4g4QzMQjTnAUo2EduSc4cBUXJnndHnT/NCbQrJPoMTS8j/uuPOo70uN9xH78otPa1521vX33J+7KXYYz8t7DfpF7iOvYOrj81chdR7tJFKojpJ0pAPpxMWr8cLzDUIZqgbtfqsKEi61I9oNP9/f7yTcvHtURmO9IxzHcLztje/vxC081U9d07AhqUZcdUyB3kQxqhoDruxKc5BdGlHSbLwIk0IKVrBzpfeue04fm3HrUR2A+kY5zyP/1M09rl8aE8mbBTsKuUDeLeieJXcX33DkSC17bTmAx1EgTl9wJGMcTLgD5AvJTe86Ix5kRmR8nawTmE2kdI//jz+D3JQRiFwpjuFl0vCNpnwIz8RDVu42EMt7dIZ74TOQc5CTELWom0vw4uSMwn0jrGH92JB7sH+wdrstmd6kdxTFA3lzYSRInIoHki+Om+OKoAKBMY9mfOn0+iTQwJ7mYT6T1PgHsDtobLJSbhRrsGLl19KA8bCPsNHirUC23sDRn+h0Jrflx0kdgPpHW+RTwwoP2idxh2C20udirUjsReYTxbiQboB6QzCq+3Sodq7hlzAvyq+M9o/lx8kdgPpHW+RxcejrvuvO7CjtM1d5oJn5Hql0IXH+I6p2H+FL8xAbIcWGSF/ardmzMm9GhOD/WMQLzibSOwYN6+X38D5/6vYja9uSOAiQ83PUITBhg5HNhnYmdpzhJDJxuEB1qHzx4EJX5cZJHYD6R1vsE6FcU9iIO7UlpRyt3kcEx7FTewURxYQFvPOk2n0YEpVX84kU9Px4TIzCfSOt8Gj56/8OhUDtM7hipOX7Vjk2E7cg7SuJzZ8ltSiztWEAFT4CcUkh/AqL1H++/T7x5cXJHYP4nQusc/8vvjR/tYjnSphHXOhtL/f2xdhSu//g7oPqLccXZYHDrL1ZlRBEHfGL54x0N/siIm/7YSPomW9Yxk+flyRyB+Y60jtH/5Rse9NYRlzkXNg3fLDrekQQMkDeX3JFMEc8C9pd7lveR+B1p/nuSx/tklvOJdJyj/8tfeKD9yg3+9C/7CzsMh3Yam+n1DlJBxbXtJEfEAUOIo+PUIO6A/QkgFse33PFFG/PypI3Ahn9nwyxnUp+8nQU7C+Zk6P1q7kbsMPzgVT+NVc0Fz+6ky5+dKNon8vNIr7391vae0/0hylnGbIw5GeM3zr+a/Xjo33xHWu1ZnIpfef8j7Qc+zU7kHcUbRdhqV83kAqJSDdlgJh6AEpdY68htfuKjITBZ08RKe7F9KD5N+p/2xY+a8+OkjMAJ/c6G6TOqlWUjPyFLjo3SW61//3nvA+1X40c6vRiwif0mLniK3Hu0M9GMw+5hR/IvR+EnEEXfuaKtnSs/3YqfKWMYZagWuPtBGGPDffn5/Q+2nz/wQHtr/CX4W0+b/a/BH63xU1/XUKz2fKxBStCN1qv8jN+GvGp35LCf2M1beOK/co6P3c2bra294zomT2sf5RW6qOsVOM0GXfXsDRyumVBqsXVgQlZts+86fdYETjpRVW0BT7jagkKDMAVymUaOnjmwb7v/7vahg/vaK+PPh8Dx3Q08Hg/H0VEny656FFqT+Wj82HVcE+nAg0faTZ/Z127+3P72xb0H2wN3PdIO7TvStu3c1J78jB3tnGfuaE//qlPas168Md8FMD1qn7nF7+b/74/e2x7ct6t94W9ubEe5yGLEqubaPRq7BnX3yxftuICPBlYxxaM9xnUd8wu7kBx2CLgcngvDDpNuzwtwAuU8irbiUcCjIR0atHFlbbucCkXhKTpgyOuZB3LwL7YPHzrQPvzw/pBdbD8nOjsbfNfWCu6Tgnf71eE/6i4k5i27n6p8L992artsm7+3QjIbWNx55Gj77YcOtvfvP9Q+/fDhdke0lz7iR+l1Hhdu2dxetGVT+9YdW9r3rvDNWcebZiFWRz3XSwkstRVe97EH29V/eV+77sqHlqJ036bNC+0FrzytXfL3Tm/nx6TiWEqvE2Y0fu/D97bfu/xeX/hx5dRF3ieLLvbpiUE71uzpiRXtiQkUV6N14nLLSeP4wC88E+CYiTo9AVPPEzfy09+eg1yRZ6JdC0E4NWl84ftrsZgADJIveCZE92PnBPFEGXAT/s7JeOgJP+JP4o17y+7z2pt3P43Gisdant9/f+++9h/ufagdWVHxxASfvXVz++kzd7fv3LX+v1O8+uqr2yWXXLK2H+0u/+O720ffe3fb/8Dqp3/0yGL79F/f3+685VB76T88s331q/esa1Q+e/OB9gd/e1/79C3xTTVxAepS04UQsnGF8aONdgqy4I8HF64vPtow8FHaHiz0uDBVmqug+XDEV22WfGGWXvagK3Npj/ujnMUf9av4TAowdNNW5szzIisRejp8P5y9kIImrj2poN1FquIWzhMQDrg46Fca0pGN3/l+ad9t7Zf23dreFJPpzbtWn1BFX6p+4Ohie8Md98UuxF+EnJzjukeOtDd8+f521emH28/EhNqIY+Yf7ZhAf/W/7vDP8GvI/KUvHGx/+T/vaJvi4r/wa7eugTkJ/Xe/c7t2CT/j/o2gnv5q9Sswrg9dIrHZUjOhMHTR4tBFi74vJVDC4Rof8LmyolCcQs0wsPtVb75ixDHi6F5EpCOpGEMjql/qj/QiXrUEcheSMwI+DSVAzmMhoHMJYhxeOhL3wDEhOOhR2PIbJ3/iPEHda51x+iGD+6WHbol6sb1p1/lSW2vBD26v+9K97cMH4zvAHgPHz963rx2O8/nZM/P7N9bRp/hhZPXjmo/E97nFbpTP/+qEKcS++w+3K//snvbl+HLI4zne/cF7+0XDtUvDN6vletwxPOvCRcGuYNusamiHQUkXidUkbckUTn/qiZOa1sk89AZ/10u6PSSWBUc3JYUDoUgY1hvcaSVe8cSkYHajdCtY+VKv8wdc9RdN9StSEXUf5cQhfXohT+iwM13+SHyv+3Ecb7zzgcfMJKru/8J9+9tvPbi+7/5Ga9WJxI9on4kf0Wb5ca46t1R927UH2jUf2rdUaEXfu//mnvYHH4qJVKt4rJK1suKi6RU+VlI57BQ8Cnx2s9ISE8NYcbta+oxPYfk6X1rErSMlCpSJ9RoPqVSq0TkjjR7GyIZ1RvzE97hyKGXmUyLn7zrw0bRs5UbDfcQvRJCLb478pSO+cWGKgwY701qP98ULChtxwa417yz4t97zUDvAOa/jWHUi7b1yf9v78ZVfWJg1/7VX7Gtf+sLadqU//NB9XnyzdC6vrFoxwzHsLqMllGU0VtBaeau2jIKS8mqrtTh14MAd+MqDll1Rh5VtOe0RidhAT2sgSlt9GfGtF3S4Sl7pyUMqFYO+9IyBpb5Ir3ByJpcKQhzSBoPZvWobgi9ulS9xoo7olz8SP6GscVd6xwPrX/Xpx4k4ePXw19fZv1Un0q3XbNwHx/bff6R96frZJ9LnborBX3Kl8Mpag9rXVmFZRiPiJXRYedMtfwcYRmlKEqk4Qk8RuDzkS3T1K52qhO69UW6xHOxmrfql1wNOSRb3p+cIZNpwZJZmot3TAZfu7HeBxXa6ECmvk8Fw3P4oubvhCLbai+3t+25WilkKXtbmJe7H8vGefeu7zld9seHLN27sqyt33TL7L5rX3BQnp1U0noLRourXkvy08Lyyiur5TQxYaP1VO9mW0IsHAphvCgqDXm/kqq3XCgCUTvitk3kiMNVN9YeVvfoFXf0hTTSETz01ABDK2nY5FYrCLxoMGPLWCIy5+eJC0FEYzi7bnaPeiUhPhRPHmvUiRfYicqWlqrzVt+XrKw/N/pwvr3JiI5fHCyC8GLLqzrJMN1bk8fvRHTdu7Epy35fXMqjxhNbKmUujq1x/CceJ6XeAsKrGKRxcPYwBK0IHuJlqne8cErZPemhZV3nQNUSiyhMe38KFV0KQuJvs/kQLvgQEtDCo0i2+cOZKUxiC1rRG6U3iMiWMJGCBJZ29aOKQTzEhEj/gpGCi8B95ePYPFN58eLk3WpX9MVHQw1sPr/62znKdXXFHOhLX/OIGj0H9OdFyHRr7a0di7cs1NsNeY+tVZZZxnv6JHSBIfUcKVq2mfUfqShjoxaUiHVW0ZLAIe0cKg3s8MCp36WUPgOiAP+6PyckPEetY2zEx5Ldlvs68wJwjN+0oYjkZesrnJpzSlF/R8CXOOw0ccAlNw3g1Ap/5EucxtHadZyJXrA4xAR8Hx6F1dHPFHYnx33X65g0dglNOXaPekk9CrZruGi0dNRBRixZFX3nxAeqFDDVLzR5LWS8jEUDPmkhUY9ArLvVgZ2twOF+KyV1FYpQjNei7jsRj45E7Q4qHV7cetBewqGLhG5+PzqLo1hSu/JCLn7DqT+nYvWq5J95DfDwcp62jnytOpK3bF9oZTz3+N1GXGrw9T15xE5ygfMer41tEazXO58JNrctaZyHkeozhI2rhWIH1EMg4B+QHTLPUim4RBxVLPa3IqekEmQcF/F3PCukhgWJwdFPSsEQoEg3rDe60Eq94YlIwu1G6Fax8qdf5A676i6b6FamIuo9y4pA+vZCnOhz1Zdtm/9L+Z2+d/TnPVI96deamTe0pm1ecDiv2aVXmec9d/98jjXvw5Gfkf18bO5exWWBZKqvOJk7fvGgGBET4tPzaaZd9dpvjpTexli+1kY7knDvInS87udjJr9x4agd0zP0CWH1TvOs4T8UGHaxJjjqBPrcuWza1Hw5KSSJguz6Y5AsfOXSIa86ETnIz3YTOy7bO/oesr9ixtZ26jtW+unki69fsnP26XKofq06kZ3zNzrb9lFVhS2kf4zv7/G3xB6yzfzPo8y/Y2Xh4Rax1EVmvrFoxaWmlzFqrryBaTmvlrdpiaI1VtRanTtgVDkPa0S6+5eUYpMIqNayBnpaqKLjrYV3c8rlQQ/myd+Pc1SnpQ0QnKh3ZT2UmgZ3GCJc+xeTo51NQi0ldMXc0JFIPhaKPMjvVDOX37J79eZ9BbsMhb9i9vg1j1Rny1Iu2t4u/YfZtfKUzfP6rdrddZ6ztd6TveNVSXxLvlbVy0dLB8os9LKFeqQmm29ACGEppT/qpOHIFFzd8cqumUKs73XK/MuIVXGTLlVmrvnBVJGksq50k+1H5gNVppiqefiucYgEG28eHDvCQf/CWW4FogBpwahiS9J+Iv7V7066nOzBj+ebTT2lre+ZnFN4AGLvRt+/iq6eP/5jpOxuee9mOduvfbV/Tm6nTXXreZbvaxa/xHwfWn9tPY5ZqXxj/wf31l57a3nOFP0bNqujXkozmuWUd1ZOfCy+rq3BR1Co6/SqbV+BaW7WWS3BSx36/aqdE/RU8v1qXeehB5q4uqF/hLD38XynvI/3wprP7R2I0aFPFUs/vOYH5uT072lvuX98bn1OpNqT5M7u2rng+qyXhfFfdkRB50gXb2tf9oz3xgb3jm7UXvnBne+E/OK3x4sXxHN9+6e72vPP8M6xX7FyB4yrlQvXKHb5aqvE7IJ9W5Shw9UKA5IdTN5PMFTY1pYdtXeVJPcsYJw0pQQarTigJMQTwDQ9AAipGQ7HuHjhwOdAZZMtOHoERDm25MLJR/MpjUes4pjLx8GmLLfvHtj1FlOMp3njKtvaTu4/vGjqefLNwfveMU9rF8fmk9R4zf2fDC16+s+2MD0JdER+nuOFTs//x6cXfsKdd+vqz2tlP295n/fF8R8BPf8/T2u/zob6/jT9gZQeIsnYZtgOebn6e50knyA4xfx+JvbuPlgaF9vT7Qxov/GEYr8YEjk/Jvik+i7TSp2VrJ1rp+X1bfDr1ydv3t39z98n9opanxydmf+NJp7W/v84XGRipNX9nwzMv2dXOOndb++yH7m9/95EH25duWH6bvjCwz33Zqe15l57Wdq71vaN8Hqer73rFGe0FT9/R+Kj578anZHniObxmyrCLlViBXE01qzzxFMg3NAF7tR1WXWj9YDUmRRTCSZRmGNipy4WZodSzQvfWjIcWeqzyHEx06xAIh2JZC8DiAJBgPBKeptrAiCmXIMalG2jgPKEK5+4bhzwgcMt9HunNM35CFqlZjjfvOSX+Hc3W9rb4PNAf7dvYv5xZLT8/FP3Iaae0f3vG7g19JXHNHzWvjh6M72i46TP72503H2r33/lwe/jgYtse39lwxlO3tXMv2tHOffbO+FFu8ifHWVas0p+l/sytB9sHPn5je8o557RPf/GgPx4exPrYOVchH+3mAtRHvKPWhVx1vCTLBVQfKz8Sf8aha37z5klcxxd/UnfQD73CRt314rsC7J+MD1j8MRXoT/IjE7L0zpMp6qNHj4RvsW3W+x3E6f0wASbwMflqYgz+xItn3YceerCdunvXhM7Lt+2OnedU5aee9Tie5/eG+LOcP49Py34mvrPhzqNHW3yAth9HjvhPdjbH87GeY1sMwHmxA128cLS9dvuWduYpG/dFMMf1UfPxyezYtVk7DrvOyTq++mk72pH4pp9LLtmYVxWP50JY6dwf63r0/epb4zsHLrhopdM4oTG+lOQHT1v6pfETNX4n4oQmt4wTkWGuOR+BJ8AIzCfSE+BJnp/iiR+B/w+oykj03dsnEQAAAABJRU5ErkJggg==;" vertex="1" parent="1">
          <mxGeometry x="17.840000000000003" y="360" width="54.31" height="30" as="geometry" />
        </mxCell>
        <mxCell id="YCXhCaxtDNognnf4IBF1-15" value="" style="rounded=0;whiteSpace=wrap;html=1;shadow=0;sketch=1;curveFitting=1;jiggle=2;fillColor=#f5f5f5;fontColor=#333333;strokeColor=#666666;" vertex="1" parent="1">
          <mxGeometry x="130" y="330" width="110" height="70" as="geometry" />
        </mxCell>
        <mxCell id="YCXhCaxtDNognnf4IBF1-8" value="" style="shape=image;verticalLabelPosition=bottom;labelBackgroundColor=default;verticalAlign=top;aspect=fixed;imageAspect=0;image=https://github.com/fermyon/spin/raw/main/docs/static/image/logo.png;" vertex="1" parent="1">
          <mxGeometry x="138.22" y="355" width="93.56" height="40" as="geometry" />
        </mxCell>
        <mxCell id="YCXhCaxtDNognnf4IBF1-16" value="spin" style="text;html=1;strokeColor=none;fillColor=none;align=center;verticalAlign=middle;whiteSpace=wrap;rounded=0;fontSize=14;" vertex="1" parent="1">
          <mxGeometry x="156.4" y="330" width="60" height="30" as="geometry" />
        </mxCell>
        <mxCell id="YCXhCaxtDNognnf4IBF1-19" value="" style="rounded=0;whiteSpace=wrap;html=1;shadow=0;sketch=1;curveFitting=1;jiggle=2;fillColor=#f5f5f5;fontColor=#333333;strokeColor=#666666;" vertex="1" parent="1">
          <mxGeometry x="270" y="330" width="110" height="70" as="geometry" />
        </mxCell>
        <mxCell id="YCXhCaxtDNognnf4IBF1-21" value="slight" style="text;html=1;strokeColor=none;fillColor=none;align=center;verticalAlign=middle;whiteSpace=wrap;rounded=0;fontSize=14;" vertex="1" parent="1">
          <mxGeometry x="296.4" y="330" width="60" height="30" as="geometry" />
        </mxCell>
        <UserObject label="https://avatars.githubusercontent.com/u/44041561?s=48&amp;v=4" link="https://avatars.githubusercontent.com/u/44041561?s=48&amp;v=4" id="YCXhCaxtDNognnf4IBF1-26">
          <mxCell style="text;whiteSpace=wrap;" vertex="1" parent="1">
            <mxGeometry x="680" y="600" width="360" height="40" as="geometry" />
          </mxCell>
        </UserObject>
        <mxCell id="YCXhCaxtDNognnf4IBF1-27" value="" style="shape=image;verticalLabelPosition=bottom;labelBackgroundColor=default;verticalAlign=top;aspect=fixed;imageAspect=0;image=data:image/png,iVBORw0KGgoAAAANSUhEUgAAAM4AAADMCAYAAAA715zPAAAAAXNSR0IArs4c6QAAAHhlWElmTU0AKgAAAAgABAEaAAUAAAABAAAAPgEbAAUAAAABAAAARgEoAAMAAAABAAIAAIdpAAQAAAABAAAATgAAAAAAAACQAAAAAQAAAJAAAAABAAOgAQADAAAAAQABAACgAgAEAAAAAQAAAM6gAwAEAAAAAQAAAMwAAAAAG2KU/AAAAAlwSFlzAAAWJQAAFiUBSVIk8AAAHKxJREFUeAHtXWmwHcV1Pu++x3tPEuhJeggkULRhiU2SLWSCWcRiF1AGjE3ALLEBu5xUJalyVapiVxJ+xFX5gbO58jNxpUwKY4ygEC4cI0wIEKsQhBDAIKiA2CRFSCwSek/L25ec0z1ntjv33pnp2ee09G7fnu7p6f76nD7n656Z2zU0fHQWKHThn/6mkpIWPEQetCqoT59+dA0fOTpL+sLHKebgP85pydcIMB7+WPCpPj5d2uL4h17S3qlE8BA83KZlFgItjoiJiIlXTASPJjxsjsP+hcSCgCDQEYGeLlQlsTAyozbNqCg6Ihdt5CKY47DCtYJO8jUCgk+waFVfPoTj4Bi3En85HqwWggviIhyHZ0eJBYHwCAjHQaxkBhXLEpnjBXOcaovS60OT8MDuSTW9rF/QreJbV/aJCskUgjIQToW6hvDOAZIcVZz1paLpB94fR4UZp+4GhttQeW5dRQpUDzzsW0akv9Hlvy4cZwsqTDulUdqCH0p5lPXhIxILAs0I1ILjkMKEURqCh8qtQ/dt/cIecVwQj3COS/3K9ShzjSKCd98gTNWMyUWLEh7YPYHK01NZPKo6zln2q6H0BW8foDsIaN5QsStd9vwte6IpDaHw+tAUvIF/ah4lXFx4VA2fso9vXu1vKH8EFwW05bFiV7oS+aQNEcPP0eqoQAsmLjwUTq50JfBx9Uf65x3vVuNbaY4ThdtoLXE+yerQn3AdNW+oiZ3mEOE8Go9qcxwaaYMgXKeanJdE35TTa46D84jy3Wk+cXOdEqeJ24RdSWulW2x1CJSq4SP9oVGPL++a42AVvLqmfLoKpLkfBI9JIKtDoWr4SH/UqGq/K8b4NvQqEeoeWRr88KR5piXFLFF+EtaGYKXAVqdM/VcTKY1XScevDO1v6FUU9PmID+CHJyZfMOg4lytsPglNcoGsTiAOhe2/NW7SvuBxS0B+K8dxyEKYchu/ylGdnn0dnsnV1EilhQMpi1wjPHwcB2XAWolSMyzJRMnSrw9NU6sTD559Hay9rPiUbTyL2l4fx2EuY8UoIB7OY3Od4uYnbW1YA71cp7j994xXCcevLO2vFMfZEvGeNFaKsHET18HpMJD7JOBDa4sm9RcVX5vjkHuK86j6X9Y4LWvDisVWp6z4SLuTk2+b42hfEgmNxWnKlk7b2rDy8L5O2fCR9tIIJiffmuNglbwq4vUxebWo+PlpWxtWHLY6HrwqgJ+nP8xl7dXC4o9/1u3XHAc1MdCn9h/ntN+H5+McZ5xPT3dmGWyuw/31xxn3n2bSMo9fGdvfkuOwBrfiPkXKz8rasHIG7ev4cSoSPkHcRtpHo9ma83TCpyXH4RkMJzMdVOz4iEXJz4rbWCjYkd7XcfDQODnpouBT9PEra/tKz3GytjasOZrrTFvcUDgAz9AqrgFHKjXHyZrbsNJw3JLroLlhixMYS37p8WnJcfw+exHTeVkbVhxeYWvnKxcRN2lva24TdrwsjsO+OccoGvjVWffm4xznn58XtyFU3EHv6zAuHGMJ/Fpk/KR9ZuNjWxyPj4p1cpo1kNM6zj8/b2tDsFPwcp3mfa+i4sfjKe2jUeRx47izfNsWJ9AXp2nJmjmLlJ83tyGo3YHuyC4SPjRo3J4ijl8V2mdbHJ55yhAXxdqw8qj2oNtMM1cZ8JN2mo9Ty30cnql0jDLh8dnzSxeF25CauINuF1tozCkIXkUbv6q0J3gfB8edfWA/p8k7XTRrw8qj29XsI+eNl1xfj5DGIbnxCd7HwWmBfeQixUXjNqw0HFP7ioSXm0tIu2iUkpPrhh50l8+nDhQzXVRrozHUv3RQJjwtQoZNLuZ4F7l9luKwb64ccwSyeOmichtWGo61VSwefppbFHd8y9Y+e1WNfUBeFSpauujWhhXHy3WcmbxoeEp7aMTij0/TPg5rPvvERUgXnduw0nBMvzFaJPzcvn0RxrMK7SkFxymLtWHFUT/Mi5NZkX109ix0m52ZV9LWuHUYvxYcB09W7nArnzi7/LJZG4Jd3YZzmH6YKn/8qD2qHZ7x1IekffHHpwXHwbmSNc6Kvens8stmbZSc4seWPfSydmcmzws/tixyfRoZHg9z+S00xymjtaHhobATLQ5xHbbcwnkIFZzhLctXdjwcjkP90tNTgWLVqNJ+KK6jWq/MdoFwlfZooYqPg8NxVE0uny/nNFmbsrppelD4kQMf18kZV9224oxzWdvjWBylfPhhxbZPrHrmHM8q3zZ+GtnSfuoH3bLHL+/xq/r1HYtj+Z5NPqgSWczMMF9Zm5TfA52VJuoH3RyuwzjaPn4O+NJgyvUJeJfljSjfjsVRA6jMDX7LO1aNqcyHcJ285Sn56zsWR4mpSwNzSleB2/g13nmpR/746rZJO0xxsC2O7ZMq5eTnFhxNzTbfL3rlT7fc11Fdc+FdCPxd7ZH2IQIuPKzxQcWh2cfl86rJyJXOML9K3EbJm+uj5b5Ohviqsc5xfKt0fVQcUiHHsuixdqezzHdJWgW/BnOdLPF1jysBzNcOOi757fApFMcp+75NJ10XrlMdbmVzHD3o7WYenoHSiclNq0Ow93VUZ/PDW2Mt14+LQ2EsTtWtDU8K9r6OOlCdGVj3rz79KYTF2bKb7iSuTwjmOtR/sQBaCoqPQyEsTl2sDU8NwnXKb5lytzh14TasNBwL1yEkim9Z9Hg1txMVh7TfPQNkm66btdEDwXdO4z1sOeMv148n76g4pE1ujcouXTduw0rDseY62eHtjHU+412l6+fKcepqbVhxhOu4PR1CpTzp3DhOXbkNKw3HwnUICbcFLEc6gONQw92a7/cBk8mvu7UhFCl03tdJB399da7bPd6U405zGf9xTtczP4DjECDuGcDvg5vn153bEILu0H5fJ3n80x7fOtSfC8cRa+NWG7Y68m4Cr6UjjNyWr1jpzDmOcBuv0nBKuA4h4fZ0ip32cJxZ9SC647OmkRZrw6rijYnrpIG3nrX1zC31s2yb4+HhOF3qMU/Hp046/aB6u6VXYCTlIKDxSQ//pMezzvVlynHE2jhKEvTNwUfPiEX28XX769vOzDiOcJsgVWk+pnEqj6+ve1C/9no4jn7ZFvuBON/5OI9JvjObNguLHHEQ0DgF++Am+Ksr+MYzyfGtW/0ejqN/oqC1jx03X/ZtHMUI843x8nOIuPjbq1UdOKzUz7KvLWg7/DPhOGJtwqiLU8bBq74cQqNR3P6nznGE2zgKEeWbcB1Cq7jcSXMcy/e1fV6VdnEcg3xn9owiNlKWcPOOB73rzuKfCY6PWrkzGN+6nt+jtNpSbP22TkfRtY/nTlsCbZfnL/q4/3zZt7Hwihm9MTwN6xboIaIq/Piajo+c315+2+HTnuNYM5uaVdTg+3zODvlibWJqjHWavg2HEj7cOd0Bf70KJ+engV97juOf4vw+Z5t84TaW9BtEzoNu1swYAX912TbjI/mIgAE+Lo6Demn5ujxTmaTF2hhojOtUZXUsy2IyHlSlnN+OI0bDBxUHZzNL87RPZ57Wb+Z3jb58jY2AsjrIdSgkNT5Jj3cd6/NyHL/PHDsdW07kxAAEbK4TezwsjiTnW+ia4+HlOH6fL0aauI24aQHSb3DI5joxxkNfllePfFxJ6rNGJTo+uNapfwuHMKQJyTQ2kI/kTz1yBODD/QAHPwE4fBhgeBjg+DGA8TH8c712t68XoK8fYN6JAAMDAAsXApy8GGDJaQDz5yffrg41jo7uxaa+DMeO74LpmRFV+g8/asD56/o6nCnZbgTmdc+DdSethQsXng+r5y5PRL5t/RgaPmrZLfcl433P3drs2wvw9i6A994F2LsbFWUoXkfcZw0sAFi+EmD1GQBr1gIsW+7OTfT7+PiHsP/AwzA0/GJgvSvO6YV5A5aTEFhCDrZCYPOiL8Cdy26GZf1LWxWJdLxLKU4SpgZVMRfFefstgFd/iw/uvwYw9GmkzscqvGARwLr1AJ/diIp0Zqwqgk4aGXkfdr1zN86KLkvoKzh3fgNWnovWUUIsBHobvfCjc34Aa+asMnattOLEaob3pEyVhlyuF3YA/PcL6IZ97G1IlqmTTwH43QsALrhYu3gG137n3b+Do8fe6FiDWJ2OELUtsHH+evjhWXe1LRMmM5DjqI1ptCC07m/7dC4OFJQf5mLGZQ4gX9n+DMDzzxpXlUgFpLTb/k3/XXgJwKVXACxFXhQxkMKEURqq9pN9U+iuidWJCLFd/JUjO+Hl4Z1w3sD6SPLt1gOSf3UjFB2kwDFvUPO9Onyc46D8VFfSSECffAKtzHO6oUX8JGWmvwsuArjyalxcQGsUMhw+jJYzZBg5MgPHh2eE64TEK6jY9k+fV4oTRb6pHrf8o+JgMOQ45KalEqhdNKM/+Xgq1adSKSk3/V35ZYBrvuJCu/XVjhzd2TozIIeURxYJAoAJeeilYeTDFAzkXisOq1LMeOeQ3tnWrUno8zUk/L/8Rb4cxqQrpOyvvARw/Q0AGz7XtqbJyWiLGsdRcXCxXEJMBD6ZOKTPjCnvZHp6SOtwXg/kMkohMa9TPm3QJRboog9vAdixPbEqc6uIXMx7fgxwyWUAN94Syvrk1tbaXdjav8R+d5LvoPwe0hiL4tg+XJMiWqA2HbdOpGdGElGePbsBHrwfYP++ag3js7/Re0u3fANgxUrjvpGrJsEUAZR75vZWVXaaj3MckI+7aahPNMtT8MX+u2lb5uuzzT5f/C+Af/zb6ikNo0KTAfXvxef5SOx48TLtYceuQE5UCISWb59ekB6g4qBatVA1/924/nKcf9vKXrOheOIxgPvvNaujLGff/1OAJ7YZtZY2QiWYI8Dy65drTrfLb5D2sOYFxiHyzx3o1o/4xunLIw8BPP6rOGeW95zHcaWQ+h0jkNLIiloM4JpOseQ+hHwH6UWDtIs1KzAOmR/L6jz4M72h2dSpGhzY/gzyOex/hCC33EQAq2NRS+5Dyjd5Zm790DYftU4Fg5gWCB697CS4bWXIO3gf+jluGOJtM3UO1H/CIUQQpQkBUtQiBvKuWWYLjsO+XpT4VlScdQu6cZVtGlrt7zQe2goN2iTs7o7a1eqVRxzeOv4RwOVLA/vGCwHingXCY3bQQO6dfRxsAtkdWoFTMX4hhbTTfJzjNvma83TDLQHn9295AvppeXae4YICtqMq4YXXcENuDT4PdNWpVelSCfrh28fBFkeRf+8+jtVdUhYKtkLqpFIidZzTVkG7PB/n2Jff+58vQf8/PWzlSuRBYOsHAIPo5m7C538kZIBAwD6OdVVbnn3yax/HcshxUM8sX49XD9JIN/Z8CHP+5l8zAKTEl7hvDz6xik+nSsgEARN5R8VBPbJMC68apJGe8w8/ha4REYq2EjGK9/zdv7dtEclMDgETeXf2cdDqKA3kGC2RJ83HOY6Q3/cvv4CeV3cl1+Mq17QL34nw6P4q97AgfTOT79Q5Ts9vd0H/fXhngITwCGz7EOAcfEnIGnx5iISUEEic42A70apQCPYBo+X3/3irqks+IiLwCC4WSEgVARP5DuA42Na2nCd8ft/Wp6H7DXzjjIToCLx3HOApfCxBQmoIBHMcvFwI+W/NcZjLxIy7jo9B/714T5aE+Ag8hi7bWAoPCcZvUXXOjCnX5I2RpXLuVUMtUxqYUNx3/zboGkaiKyE+AsfxAcFf410FEpJHwFDOHYuDTeNVNNIqCpzWvqCT7pRPCtP30JOqDvkwROA/UHFIgSQkjkBc+Sb5dywONostjsfHY82MkN/3yNMAE5OJd7SWFU7iJPYMvsJXQuIIsLxrrhNN/h2LY/lupE0eTYyR7t36VOKdrHWFT4viJD7+MeTarReOxWHLYhj3btsBXUdwRUhCcgiQq7bDejNLcrXWuyZDOVcWx89ZTNK9j9f8GZu0xPE5UZykoWULEkfelcXxc5q46Z49B6D7tbeT7p/URwi8gyuU++VevySFgTlOHHlPlOP0PPM/SfZL6vIj8DL+xo+EZBAoEsc5YceryXRKaglG4DX8lQYJySBgyHFaPwGKjxvg+lrrJ0B9+d37D0L3LnyeREJ6COzBX2f7BN/TvTjkex3Sa0n5a8ZV/ijyTQ+x0e4mx+3vjlbFdGFCik6i4MT6G332vPKmypOPlBF466goThIQo9DivTKqJv3plmt9gXb5iXEcUZwkRjNEHfS8jgRzBAw5TgeLo9vXWiOd/O7X5S5o89EMUcO7ojghUOpchDiOVSpO7OI4fk4TPg2HhqFx4GDnxkoJcwQOTuCPAuPtTAMnmNdV5xqaOE54eSeu47M4WvccDQyX7nlfHrrKVAY/GBXFMQUcRZttTlR5p/I9avcUv1DCvWrAaW4fp/0x5Tdw41NChgjQm3Do0WoJ8REgjuM62y/XnOYinOa4h+8MpQJdluZQJgVO65ST9ud375MnFRmjTOKPU/rpyEwaX5CLEMdhS2E1idN++eYWu/NdHMeyOFgZ16fiEOmuD+U+KgY3k/hT5DkSzBCwLA4pQ1R5p/I+jqPbYmuc1bRO6cahIbNOyNnREBiSZ52iARZQOrlVNZ/m4bU8mtgm3TWEm3ISskPgmDwRagw2WxysKKycu8t5LY6VY1uYkOnGR9F+Ndm403Wv4JC4asYi4OI4UeWdyrfhONa6NiqPW9Mcn9DJN+6EVCAIZI2Akmu8FzOEfAfJv9fiWI23NTDkvTxZ91muJwgYI4BC3ryPo2sNI/9N+zjcIDqZNI1DpzSXk1gQKAUCLfZxuO2d5F3v41i2iNep2TcLnearSSwIlAUBF8eJLO+oLw7HwYTSnxhxWbCSdgoCNgK8qhZD3klPOnAcfRnH5wtOz5w6CI2PZBPUHpS0vwzKz0AaQ2y6j+O/V40b1MnHc+fPLpgHIIrD0KUfn6h/8zj9C1X4CkXgOLODCxFh+SWxzMRsgTxSYIx1ETjO9JJF6PNJyAyBReKqGWNdBI4ze7r8zLjxQEapQF7WEQWt4LJJcRx/7W4O48+jtDt/asXSoCJyLC0ElvanVXN96vVxHH/H3fLtz6O0Zx9HvQoUNdFZ18aFN1e6Vf7M6mVBdcuxtBA4fU5aNdenXsVxwsk364Nb/vVbbiiHNVDF0dIzg/Nh5rTF9QE9z56SmybvGzAfAQN5p2dHvb9WQA4YaSJZGYojpKfPPcO8M1JDZwRW49K/BHMEIsq3Xx8atI/Db20nTYqbnvrcWvPOSA2dEVgrP+HeGaQQJSzPKq68ezhO6HvT0JNTxsiKydOb2nR2iNZKEWMEzjzJuAqpABEgi+OSX788d0r7OA7W5OE44dMzS0+G6bXLZUzSRGDFXHn9bVL4xpRz1o/EOA5p8OTFG5PqltQThMCGgaCjciwOAklxHOXruThOnPTkFefF6YKcExaBTXRrk4QkEIgj3+41gAatoKl/KibXL356ZsVpML1hTRL9kjr8CHwGFwVk49OPSuy0lvP48u7jONgOj+8XPT3x5Ytid0ZObIPARYNtMiUrMgJKzvGsmPKuOY5aQtCWxrNeHeP4xLWbYXa+7DVEHsh2J8zDW2gvFsVpB1HkPDfHiSHneh+HuU1C8fiNX4rcDzmhDQJflLsy2qATK8vDcWLIfaIch26MI99x4vdQcXrlmZFYI+o/6QRE9QpRHD8spunCcRzyGWfmz4Xxm6807ZucTwhciY9skKsmIVkEisZxmCONf/MamB2Q20OMRpsekb5annUywrDVyUXkOLTePTOnD8bu+EqrZsvxMAhci8859XeHKSllIiJgznH0Lo61f4Mchf8pjTRLT9z0RZg+d3XELklxhcAZuDIpiwKpCYPNcWLKe0PthqKF0OvZ1E59hNOm+aN/dFNqna90xTecXunu5d45i+PElW97VY25iT/Wmul7Pge1lMt1yp/+7FoYv/3a3HEqVQOuWQKwRvhhqmNmcZxO8tsqP5V9HKXF1o4s+ZKjf/A1mEIFkhACAXre5qunhSgoRUwQKDTHUfs6lg85+r07YHauvGSi7WDPwYWAb8ijGW0xSihTW5L4HD51jsM+5MzyU2Hkz7+VULcrWs3tKwCWyOSSyegWneO4fcSpyz8PY38siwWBgnEjLgZsWhCYJQdTQMCQ49i/j0MLayqkHI/dejV0fXoE+h789xTQKGmVdHfAVbLRmeXoEcdRIaa899C+DS1Bk7eXVTz2J1+HrtFx6P3lb1Tb6/wxcf1lAJcerzMEufTdVO4tjkNtJzZi7+Kknh79s2/CxHWb6cK1DdT/EcRBQh4ImMl7Ym+5UVs7PsPV6S0io9+/E28p6YXeh5/KA7lcrzlx05dg9Lu30XaYhDwQII4TUV7d5TPnOH4uNfLdW/Fu6hOh/55H84Avl2uOfft6GPsW3ceHI0eDJyFzBFLiONwPn0qqUXZPkcnkj995HcwuGYQ5d9/DF65sPHrXd2Di6gsVo9Ra48azst0uXMfacxxubmv57tGeHi0N8Dc9BdJw6m+cTjefhGlq+RKY+/f3Qfe7/8ctr0w8fcbvwMj3b4fps1cpZP34VqajpemIX5796fby33SvmnvfhbQyy/TM2avh2E/+CiZuuKI08Idp6MTXLlf9ov4F4RmmDimTMAIt9nGCxkdZJ1/53DmO7eNrw6ZWxUf+9PdhctNZMOeft0Jj38cJI5ZddTPLTgG6O3xyM7+oETvJ/fTH2TVLroQIpMRxaFTZmcgnntq8CY5eshH6f/Io9N33WOkGm+4IH/vOVxFGfJGQ0pbWOJ58wiAcnJRf7c5qkBf3DpIvReoTW85tjtN6KvRPjRmm0TzSndXj+K62/p9tg95tO7LCNvZ1Jq65GMbwsfGZ00+x6uiM1+cHNsCvDz4T+5pyYjQENs3fgCrTeVx0rcHlrDsHsAgrILehQGn6jdHRv/g2TNx8ldrz6f3Vdm5lYeKJ6y4F2puZXqUfQEOdd+YiamWb9KWDF4riZDiShDdxGVt3OoyPappv/LoODx1hlcqw6WaXahwagt7HnoXeJ57PlQMRh6HVwIlrL4GZQbMbNO9664fwypGdZsDI2R0R2Dh/Pdx95l92LNepQNfQ0FFUHNIdVqlyxT0vvwknbH8Zep7bCY2PDnbqr3H+zKmDMHXxBiT858HUeWclhtuu4+/B9978a5iYmTBuo1QQjEBvoxd+dPYPYM3cVcbj1tLisPoEN8FRsyLld+/aCz2vvAk9O9+B7v/dDY2Dh1s1L/TxmcWLYPqsFTC1/jMwtfEs+zeA0sBn39gBuHffQ/Ds4RdCt08KhkNg86IvwB2nfx2W9etfSDceP21x8OL+miqQJpeu8f4BaHzwMTQ+PgRdB4ehMXwMYGQMusacmX0W75ebPXEOzJ40D2ZPHoCZUwaB3LCZlUthZpHlgmWIx/uje+G5wy/C60ffguPTI+EkQ0o1ITCvey6sO+lMuGjh+bBqLj5Z6yYlhuPZ0uI0tUIOCAKCgI1ALs/jlJlTOaaZpyyJ6zieYnHsOUS+CALhEXD2cQLP4dW2wEw8KPnaAgk+wQhUVz5cdw4Ed93LqILKuBmX5DcjIPg0Y+I+Uk58hOPYy4nCVRwPgi2FxK04rXAc9+Qn3wWBkAh04Dgha5FigkDNEPByHLbMDIKkvdxf8BA8yKPH0FBPeeIX/ZSbjilP0oiC+q+f3BA8BA+PPJTx7mjSeAmCQJ4I+DiO+CLKzNgjIngIHuR/cXDkwbuq5hzXJSUtchMsN7WXj7bP49DjpdrDZw3yxpIv+NRVPrwWhy2SxIKAINAWAeE4tFRiB7aofEDS4qsGy4e2OCwfEms5ERwEB9KXNnLg4Th+ziJpL4cRPAQP5nT/D7ngGCdbdT6BAAAAAElFTkSuQmCC;" vertex="1" parent="1">
          <mxGeometry x="306.2" y="355" width="40.39" height="40" as="geometry" />
        </mxCell>
        <mxCell id="YCXhCaxtDNognnf4IBF1-30" style="rounded=0;orthogonalLoop=1;jettySize=auto;html=1;endArrow=none;endFill=0;" edge="1" parent="1">
          <mxGeometry relative="1" as="geometry">
            <mxPoint x="42.84" y="400" as="sourcePoint" />
            <mxPoint x="42.84" y="440" as="targetPoint" />
          </mxGeometry>
        </mxCell>
        <mxCell id="YCXhCaxtDNognnf4IBF1-31" value="" style="shape=image;verticalLabelPosition=bottom;labelBackgroundColor=default;verticalAlign=top;aspect=fixed;imageAspect=0;image=data:image/svg+xml,PHN2ZyB4bWxucz0iaHR0cDovL3d3dy53My5vcmcvMjAwMC9zdmciIHZpZXdCb3g9IjAgMCAyNTYgMjU1Ljk5Njk5NDAxODU1NDciIHdpZHRoPSIyNTAwIiBwcmVzZXJ2ZUFzcGVjdFJhdGlvPSJ4TWlkWU1pZCIgaGVpZ2h0PSIyNDk5Ljk5OTk0MTU4Njc2MzMiPjxwYXRoIGZpbGw9IiM2NTRmZjAiIGQ9Ik0xNTcuMjkgMEgyNTZ2MjU1Ljk5N0gwVjBoOTguNzFjLS4wMi40NTgtLjA2OC45MTEtLjA2OCAxLjM3NSAwIDE2LjIxNSAxMy4xNDQgMjkuMzYgMjkuMzU4IDI5LjM2czI5LjM2LTEzLjE0NSAyOS4zNi0yOS4zNmMwLS40NjQtLjA0Ny0uOTE3LS4wNy0xLjM3NXptNTguMzI3IDIyOC42aDE3LjU5OGwtMjYuNjU3LTkwLjYzMmgtMjYuNzUzTDE1Ny44NTMgMjI4LjZoMTcuMDU4bDQuNDQ0LTIwLjE4aDMwLjQ4NXptLTkzLjQgMGgxNi44NDJsMjEuNjA5LTkwLjYzMkgxNDQuMDRsLTEzLjIzNiA2Mi40NTNoLS4yMTZsLTEyLjU3LTYyLjQ1M2gtMTUuODcxbC0xMy45ODQgNjEuNjloLS4yMTdsLTExLjYwNC02MS42OUg1OS4zOUw3OC45MiAyMjguNmgxNy4xNjZsMTMuNDQ3LTYxLjY5aC4yMTZ6bTY3Ljc4NC02OC4yOTFoNy4xM2w4LjUwMiAzMy4yNThoLTIzLjAzeiIvPjwvc3ZnPg==;" vertex="1" parent="1">
          <mxGeometry x="17.840000000000003" y="440" width="50" height="50" as="geometry" />
        </mxCell>
        <mxCell id="YCXhCaxtDNognnf4IBF1-32" style="rounded=0;orthogonalLoop=1;jettySize=auto;html=1;endArrow=none;endFill=0;" edge="1" parent="1">
          <mxGeometry relative="1" as="geometry">
            <mxPoint x="186.39999999999998" y="400" as="sourcePoint" />
            <mxPoint x="186.39999999999998" y="440" as="targetPoint" />
          </mxGeometry>
        </mxCell>
        <mxCell id="YCXhCaxtDNognnf4IBF1-33" value="" style="shape=image;verticalLabelPosition=bottom;labelBackgroundColor=default;verticalAlign=top;aspect=fixed;imageAspect=0;image=data:image/svg+xml,PHN2ZyB4bWxucz0iaHR0cDovL3d3dy53My5vcmcvMjAwMC9zdmciIHZpZXdCb3g9IjAgMCAyNTYgMjU1Ljk5Njk5NDAxODU1NDciIHdpZHRoPSIyNTAwIiBwcmVzZXJ2ZUFzcGVjdFJhdGlvPSJ4TWlkWU1pZCIgaGVpZ2h0PSIyNDk5Ljk5OTk0MTU4Njc2MzMiPjxwYXRoIGZpbGw9IiM2NTRmZjAiIGQ9Ik0xNTcuMjkgMEgyNTZ2MjU1Ljk5N0gwVjBoOTguNzFjLS4wMi40NTgtLjA2OC45MTEtLjA2OCAxLjM3NSAwIDE2LjIxNSAxMy4xNDQgMjkuMzYgMjkuMzU4IDI5LjM2czI5LjM2LTEzLjE0NSAyOS4zNi0yOS4zNmMwLS40NjQtLjA0Ny0uOTE3LS4wNy0xLjM3NXptNTguMzI3IDIyOC42aDE3LjU5OGwtMjYuNjU3LTkwLjYzMmgtMjYuNzUzTDE1Ny44NTMgMjI4LjZoMTcuMDU4bDQuNDQ0LTIwLjE4aDMwLjQ4NXptLTkzLjQgMGgxNi44NDJsMjEuNjA5LTkwLjYzMkgxNDQuMDRsLTEzLjIzNiA2Mi40NTNoLS4yMTZsLTEyLjU3LTYyLjQ1M2gtMTUuODcxbC0xMy45ODQgNjEuNjloLS4yMTdsLTExLjYwNC02MS42OUg1OS4zOUw3OC45MiAyMjguNmgxNy4xNjZsMTMuNDQ3LTYxLjY5aC4yMTZ6bTY3Ljc4NC02OC4yOTFoNy4xM2w4LjUwMiAzMy4yNThoLTIzLjAzeiIvPjwvc3ZnPg==;" vertex="1" parent="1">
          <mxGeometry x="161.39999999999998" y="440" width="50" height="50" as="geometry" />
        </mxCell>
        <mxCell id="YCXhCaxtDNognnf4IBF1-34" style="rounded=0;orthogonalLoop=1;jettySize=auto;html=1;endArrow=none;endFill=0;" edge="1" parent="1">
          <mxGeometry relative="1" as="geometry">
            <mxPoint x="325" y="400" as="sourcePoint" />
            <mxPoint x="325" y="440" as="targetPoint" />
          </mxGeometry>
        </mxCell>
        <mxCell id="YCXhCaxtDNognnf4IBF1-35" value="" style="shape=image;verticalLabelPosition=bottom;labelBackgroundColor=default;verticalAlign=top;aspect=fixed;imageAspect=0;image=data:image/svg+xml,PHN2ZyB4bWxucz0iaHR0cDovL3d3dy53My5vcmcvMjAwMC9zdmciIHZpZXdCb3g9IjAgMCAyNTYgMjU1Ljk5Njk5NDAxODU1NDciIHdpZHRoPSIyNTAwIiBwcmVzZXJ2ZUFzcGVjdFJhdGlvPSJ4TWlkWU1pZCIgaGVpZ2h0PSIyNDk5Ljk5OTk0MTU4Njc2MzMiPjxwYXRoIGZpbGw9IiM2NTRmZjAiIGQ9Ik0xNTcuMjkgMEgyNTZ2MjU1Ljk5N0gwVjBoOTguNzFjLS4wMi40NTgtLjA2OC45MTEtLjA2OCAxLjM3NSAwIDE2LjIxNSAxMy4xNDQgMjkuMzYgMjkuMzU4IDI5LjM2czI5LjM2LTEzLjE0NSAyOS4zNi0yOS4zNmMwLS40NjQtLjA0Ny0uOTE3LS4wNy0xLjM3NXptNTguMzI3IDIyOC42aDE3LjU5OGwtMjYuNjU3LTkwLjYzMmgtMjYuNzUzTDE1Ny44NTMgMjI4LjZoMTcuMDU4bDQuNDQ0LTIwLjE4aDMwLjQ4NXptLTkzLjQgMGgxNi44NDJsMjEuNjA5LTkwLjYzMkgxNDQuMDRsLTEzLjIzNiA2Mi40NTNoLS4yMTZsLTEyLjU3LTYyLjQ1M2gtMTUuODcxbC0xMy45ODQgNjEuNjloLS4yMTdsLTExLjYwNC02MS42OUg1OS4zOUw3OC45MiAyMjguNmgxNy4xNjZsMTMuNDQ3LTYxLjY5aC4yMTZ6bTY3Ljc4NC02OC4yOTFoNy4xM2w4LjUwMiAzMy4yNThoLTIzLjAzeiIvPjwvc3ZnPg==;" vertex="1" parent="1">
          <mxGeometry x="300" y="440" width="50" height="50" as="geometry" />
        </mxCell>
        <mxCell id="YCXhCaxtDNognnf4IBF1-36" value="" style="shape=image;verticalLabelPosition=bottom;labelBackgroundColor=default;verticalAlign=top;aspect=fixed;imageAspect=0;image=data:image/svg+xml,PHN2ZyB4bWxucz0iaHR0cDovL3d3dy53My5vcmcvMjAwMC9zdmciIGhlaWdodD0iNjAiIHdpZHRoPSIxMjAiIHZpZXdCb3g9Ii0wLjU2IC0wLjgyIDEyMCA2MCI+PHBhdGggZD0iTTk0LjQ0IDE2LjYzM3YyNS4wOTRoMTcuNVYxNi42MzN6bTE0LjYgMjIuMjA1SDk3LjMzdi0xMS4wNmg4LjE3MnYtNC4wNDVoMy40NjdWMzguODR6bS04LjE3LTguMTcyaDQuNzA1djUuMjgzaC00LjcwNXoiLz48cGF0aCBvcGFjaXR5PSIuNjYiIGQ9Ik00NC4yNSAyOC4yNzJ2LTQuMDQ1aC0yLjN2NC4wNDVoLTEuNzMzdjIuMzk0aDEuNzMzdjguMTcyaDQuNzA1di0yLjM5NEg0NC4yNXYtNS43NzhoMi4zOTR2LTIuMzk0em01Ljg2MiAyLjM5NGg1Ljg2VjMyLjRINDcuOHY2LjQ0aDEwLjQ4M1YyOC4yNzJINTAuMXptNS44NiA1Ljc3OGgtNS44NlYzNC43aDUuODZ6bTMuNDY4LTguMTcyaDIuM3YxMC40ODNoLTIuM3ptLTI2LjgyOCAyLjM5NGg0LjA0NXY4LjE3MmgyLjM5NFYyOC4yNzJIMzAuM3YxMC41NjZoMi4zem0tMTUuMiA1Ljc3OEg5LjI1di01Ljc3OGg4LjE3MnYtMi4zOTRINi45NHYxMC41NjZoMTAuNDgzem0xLjE1Ny02LjEwOHY4LjQyaDEwLjQ4M1YyOC4yNzJIMTguNTh6bTIuMzk0LjMzaDUuODZ2NS44NmgtNS44NnptMzguNDY2LTYuNDRoMi4zdjIuM2gtMi4zem0yNi44MjggNC4wNDVoLTIuM3YxMC41NjZoMi4zdi04LjE3Mmg2LjQ0VjI4LjI3ek02NS4zIDMwLjY2Nmg0LjA0NXY4LjE3MmgyLjNWMjguMjcyaC04Ljc1djEwLjU2Nkg2NS4zem03LjU5NS0yLjM5NHYxMC40ODNoOC43NXYtMi4zaC02LjQ0VjM0LjdIODIuOHYtNi40NGgtOC43NXptMi4zIDIuMzk0SDgwLjVWMzIuNGgtNS4yODN6Ii8+PC9zdmc+;" vertex="1" parent="1">
          <mxGeometry x="440" y="60" width="160" height="80" as="geometry" />
        </mxCell>
      </root>
    </mxGraphModel>
  </diagram>
</mxfile>
